<svg height="496pt" viewBox="0 -3 496 496" width="496pt" xmlns="http://www.w3.org/2000/svg"><path d="m496 233.039062c0-53.015624-42.984375-96-96-96s-96 42.984376-96 96c0 41.777344 26.734375 77.21875 64 90.402344v77.597656l16 16-16 16v32l24 24h16l24-24v-141.597656c37.265625-13.183594 64-48.625 64-90.402344zm0 0" fill="#f0bc5e"/><path d="m400 193.039062c8.824219 0 16 7.175782 16 16h16c0-14.863281-10.230469-27.285156-24-30.863281v-17.136719h-16v17.136719c-13.769531 3.578125-24 16-24 30.863281 0 17.648438 14.351562 32 32 32 8.824219 0 16 7.175782 16 16 0 8.824219-7.175781 16-16 16s-16-7.175781-16-16h-16c0 14.871094 10.230469 27.289063 24 30.863282v17.136718h16v-17.136718c13.769531-3.574219 24-15.992188 24-30.863282 0-17.648437-14.351562-32-32-32-8.824219 0-16-7.175781-16-16 0-8.824218 7.175781-16 16-16zm0 0"/><path d="m328 225.039062h16v16h-16zm0 0"/><path d="m456 225.039062h16v16h-16zm0 0"/><path d="m0 84.207031v36.832031h32v16h-16v352h288v-352h-16v-16h32v-36.832031l-160-84.207031zm192 308.832031v80h-64v-80zm96 80h-80v-80h16v-16h-128v16h16v80h-80v-320h256zm-16-336h-224v-16h224zm32-32h-288v-11.167968l144-75.792969 144 75.792969zm0 0"/><g fill="#f0bc5e"><path d="m112 249.039062h-64v-64h64zm0 0"/><path d="m192 249.039062h-64v-64h64zm0 0"/><path d="m272 249.039062h-64v-64h64zm0 0"/><path d="m112 345.039062h-64v-64h64zm0 0"/><path d="m192 345.039062h-64v-64h64zm0 0"/><path d="m272 345.039062h-64v-64h64zm0 0"/></g></svg>