<svg height="496pt" viewBox="0 0 496 496" width="496pt" xmlns="http://www.w3.org/2000/svg"><path d="m128 296c-52.9375 0-96-43.0625-96-96s43.0625-96 96-96 96 43.0625 96 96-43.0625 96-96 96zm0 0" fill="#f0bc5e"/><path d="m224 112h80v-48h-80zm16-32h48v16h-48zm0 0"/><path d="m224 32h96v16h-96zm0 0"/><path d="m336 32h16v16h-16zm0 0"/><path d="m400 32h64v16h-64zm0 0"/><path d="m384 64h80v16h-80zm0 0"/><path d="m272 128h32v16h-32zm0 0"/><path d="m320 128h32v16h-32zm0 0"/><path d="m432 112c-1.886719 0-3.742188.230469-5.585938.566406-.566406.105469-1.117187.210938-1.679687.34375-1.429687.347656-2.839844.769532-4.207031 1.3125-.855469.328125-1.664063.722656-2.480469 1.121094-.6875.335938-1.382813.640625-2.046875 1.023438-4.855469-2.847657-10.359375-4.367188-16-4.367188-17.648438 0-32 14.351562-32 32s14.351562 32 32 32c5.640625 0 11.144531-1.519531 16-4.359375.664062.382813 1.359375.6875 2.046875 1.023437.816406.398438 1.625.792969 2.480469 1.121094 1.375.535156 2.777344.96875 4.207031 1.3125.5625.125 1.113281.238282 1.679687.34375 1.84375.328125 3.699219.558594 5.585938.558594 17.648438 0 32-14.351562 32-32s-14.351562-32-32-32zm-48 32c0-8.824219 7.175781-16 16-16 1.519531 0 2.863281.257812 4.121094.609375-2.546875 4.582031-4.121094 9.78125-4.121094 15.390625s1.574219 10.808594 4.121094 15.390625c-1.257813.351563-2.601563.609375-4.121094.609375-8.824219 0-16-7.175781-16-16zm48 16c-1.214844 0-2.335938-.144531-3.382812-.375-.25-.058594-.472657-.160156-.714844-.226562-2.863282-.789063-5.078125-2.246094-6.558594-3.574219l-.902344-.816407c-2.730468-2.863281-4.441406-6.734374-4.441406-11.007812s1.710938-8.144531 4.449219-11.015625l.902343-.816406c1.472657-1.328125 3.695313-2.785157 6.558594-3.574219.242188-.066406.464844-.167969.714844-.226562 1.039062-.222657 2.160156-.367188 3.375-.367188 8.824219 0 16 7.175781 16 16s-7.175781 16-16 16zm0 0"/><path d="m496 184v-160c0-13.230469-10.769531-24-24-24h-256c-13.230469 0-24 10.769531-24 24v65.320312c-18.855469-10.945312-40.671875-17.320312-64-17.320312-70.574219 0-128 57.425781-128 128 0 56.601562 36.96875 104.664062 88 121.511719v22.488281h-16v16h16v96c0 22.054688 17.945312 40 40 40s40-17.945312 40-40v-96h16v-16h-16v-22.488281c48.601562-16.046875 84.289062-60.433594 87.59375-113.511719h101.964844c-22.671875 15.9375-37.558594 42.238281-37.558594 72 0 14.449219 3.566406 28.0625 9.761719 40.105469-.585938-.015625-1.175781-.105469-1.761719-.105469-48.519531 0-88 39.480469-88 88s39.480469 88 88 88 88-39.480469 88-88c0-14.191406-3.375-27.769531-9.734375-40.089844.582031.011719 1.148437.089844 1.734375.089844 48.519531 0 88-39.480469 88-88 0-29.761719-14.886719-56.0625-37.558594-72h13.558594c13.230469 0 24-10.769531 24-24zm-344 272c0 13.230469-10.769531 24-24 24s-24-10.769531-24-24v-96h48zm0-112h-48v-18.335938c7.785156 1.488282 15.792969 2.335938 24 2.335938s16.214844-.847656 24-2.335938zm-24-32c-61.761719 0-112-50.238281-112-112s50.238281-112 112-112 112 50.238281 112 112-50.238281 112-112 112zm272 96c0 39.695312-32.304688 72-72 72s-72-32.304688-72-72c0-44.105469 40.160156-79.265625 85.457031-70.585938 11.445313 13.25 26.75 23 44.175781 27.59375 9.375 12.519532 14.367188 27.304688 14.367188 42.992188zm80-128c0 39.695312-32.304688 72-72 72s-72-32.304688-72-72 32.304688-72 72-72 72 32.304688 72 72zm-224.40625-88c-.335938-5.425781-.9375-10.777344-1.929688-16h98.335938v-16h-102.488281c-1.824219-5.519531-4.0625-10.839844-6.582031-16h13.070312v-16h-22.257812c-7.15625-10.488281-15.863282-19.824219-25.742188-27.761719v-76.238281c0-4.40625 3.59375-8 8-8h256c4.40625 0 8 3.59375 8 8v160c0 4.40625-3.59375 8-8 8zm0 0"/><path d="m110.910156 235.601562-17.253906-17.257812-11.3125 11.3125 30.746094 30.742188 61.460937-87.8125-13.101562-9.171876zm0 0"/><path d="m408 304c-4.40625 0-8-3.59375-8-8h-16c0 10.414062 6.710938 19.214844 16 22.527344v17.472656h16v-17.472656c9.289062-3.3125 16-12.113282 16-22.527344 0-13.230469-10.769531-24-24-24-4.40625 0-8-3.59375-8-8s3.59375-8 8-8 8 3.59375 8 8h16c0-10.414062-6.710938-19.214844-16-22.527344v-17.472656h-16v17.472656c-9.289062 3.3125-16 12.113282-16 22.527344 0 13.230469 10.769531 24 24 24 4.40625 0 8 3.59375 8 8s-3.59375 8-8 8zm0 0"/><path d="m328 384c4.40625 0 8 3.59375 8 8h16c0-10.414062-6.710938-19.214844-16-22.527344v-17.472656h-16v17.472656c-9.289062 3.3125-16 12.113282-16 22.527344 0 13.230469 10.769531 24 24 24 4.40625 0 8 3.59375 8 8s-3.59375 8-8 8-8-3.59375-8-8h-16c0 10.414062 6.710938 19.214844 16 22.527344v17.472656h16v-17.472656c9.289062-3.3125 16-12.113282 16-22.527344 0-13.230469-10.769531-24-24-24-4.40625 0-8-3.59375-8-8s3.59375-8 8-8zm0 0"/></svg>