<svg height="496pt" viewBox="0 0 496 496" width="496pt" xmlns="http://www.w3.org/2000/svg"><path d="m408 168h64v40h-64zm0 0" fill="#f0bc5e"/><path d="m275.558594 144h44.441406v32h-40v16h104v-64h-108.441406zm92.441406 32h-32v-32h32zm0 0"/><path d="m208 424-40-32-40 32 16 16-7.886719 46.6875h63.773438l-7.886719-46.6875zm0 0" fill="#f0bc5e"/><path d="m178.175781 56c-29.335937 0-56.910156 11.425781-77.65625 32.167969l-8.535156 8.535156c-25.632813 6.289063-43.984375 29.480469-43.984375 56.089844v87.207031h8c0-17.671875 14.328125-32 32-32v-32s32 8 80 8 80-8 80-8v32c17.671875 0 32 14.328125 32 32h8v-74.175781c0-60.558594-49.265625-109.824219-109.824219-109.824219zm0 0" fill="#f0bc5e"/><path d="m136 216c0 4.417969-3.582031 8-8 8s-8-3.582031-8-8 3.582031-8 8-8 8 3.582031 8 8zm0 0"/><path d="m216 216c0 4.417969-3.582031 8-8 8s-8-3.582031-8-8 3.582031-8 8-8 8 3.582031 8 8zm0 0"/><path d="m168 288c-8.824219 0-16-7.175781-16-16h-16c0 17.648438 14.351562 32 32 32s32-14.351562 32-32h-16c0 8.824219-7.175781 16-16 16zm0 0"/><path d="m480 288v-128h-64v-64h-16v-64h-16v-32h-112v32h-16v56.425781c6.953125 6.988281 12.921875 14.933594 17.800781 23.574219h126.199219v176h-32v-80h-64v80h-54.113281c1.082031-2.761719 2.023437-5.59375 2.824219-8.480469 19.816406-2.359375 35.289062-19.078125 35.289062-39.519531 0-19.3125-13.769531-35.472656-32-39.191406v-35.039063l-9.929688 2.46875c-.316406.074219-31.757812 7.761719-78.070312 7.761719s-77.753906-7.6875-78.0625-7.769531l-9.9375-2.460938v35.039063c-18.230469 3.71875-32 19.878906-32 39.191406 0 20.441406 15.472656 37.160156 35.289062 39.519531 5.789063 20.832031 19.054688 38.585938 36.710938 50.160157v16.550781l-81.703125 27.25c-22.914063 7.625-38.296875 28.976562-38.296875 53.113281v69.40625h336v-69.40625c0-24.144531-15.382812-45.496094-38.289062-53.121094l-81.710938-27.242187v-10.230469h264c8.824219 0 16-7.175781 16-16v-16c0-8.824219-7.175781-16-16-16zm-192-272h80v16h-80zm32 80h-16v-16h16zm32 0h-16v-16h16zm32 0h-16v-32h-80v32h-16v-48h112zm-128 160v-38.527344c9.296875 3.3125 16 12.113282 16 22.527344 0 10.535156-6.871094 19.414062-16.335938 22.632812.167969-2.199218.335938-4.394531.335938-6.632812zm-192-16c0-10.414062 6.710938-19.214844 16-22.527344v38.527344c0 2.238281.167969 4.433594.335938 6.632812-9.464844-3.21875-16.335938-12.097656-16.335938-22.632812zm352-64h48v112h-48zm-96 48h32v64h-32zm-194.160156 137.152344 30.3125 30.3125-32.265625 26.886718-16.957031-50.894531zm10.160156-12.464844v-10.800781c9.929688 3.90625 20.695312 6.113281 32 6.113281 11.3125 0 22.070312-2.246094 32-6.167969v10.855469l-32 32zm156.65625 39.960938c16.351562 5.457031 27.34375 20.703124 27.34375 37.945312v53.40625h-304v-53.40625c0-17.242188 10.992188-32.496094 27.351562-37.945312l48.390626-16.128907 24.378906 73.128907 51.878906-43.234376 51.878906 43.234376 24.378906-73.128907zm-63.578125-21.191407-16.957031 50.894531-32.265625-26.886718 30.3125-30.3125zm-61.078125-39.457031c-39.695312 0-72-32.296875-72-72v-70.167969c13.214844 2.449219 38.785156 6.167969 72 6.167969s58.785156-3.71875 72-6.167969v70.167969c0 39.703125-32.304688 72-72 72zm312-8h-251.792969c5.082031-4.785156 9.617188-10.136719 13.449219-16h238.34375zm0 0"/></svg>