<svg height="496pt" viewBox="0 0 496 496" width="496pt" xmlns="http://www.w3.org/2000/svg"><path d="m335.785156 0c-37.265625 0-71.875 18.335938-92.800781 49.113281-20.753906 6.597657-34.984375 25.847657-34.984375 47.871094v87.015625h8c0-17.671875 14.328125-32 32-32v-16h53.488281c16.976563 0 33.253907-6.742188 45.253907-18.742188l9.335937-9.335937c2.515625-2.515625 5.921875-3.921875 9.464844-3.921875 6.144531 0 11.496093 4.183594 12.992187 10.144531 3.207032 12.839844 14.753906 21.855469 27.992188 21.855469h1.472656v16c17.671875 0 32 14.328125 32 32h8v-71.785156c0-61.871094-50.34375-112.214844-112.214844-112.214844zm0 0" fill="#f0bc5e"/><path d="m64 400h80v80h-80zm0 0" fill="#f0bc5e"/><path d="m296 168c0 4.417969-3.582031 8-8 8s-8-3.582031-8-8 3.582031-8 8-8 8 3.582031 8 8zm0 0"/><path d="m376 168c0 4.417969-3.582031 8-8 8s-8-3.582031-8-8 3.582031-8 8-8 8 3.582031 8 8zm0 0"/><path d="m457.710938 317.472656-81.710938-27.242187v-16.574219c17.679688-11.558594 30.910156-29.304688 36.710938-50.136719 19.816406-2.359375 35.289062-19.078125 35.289062-39.519531 0-19.3125-13.769531-35.472656-32-39.191406v-16.808594h-9.472656c-9.582032 0-17.902344-6.496094-20.230469-15.800781-2.386719-9.535157-10.921875-16.199219-20.753906-16.199219-5.71875 0-11.09375 2.222656-15.128907 6.265625l-9.335937 9.335937c-10.574219 10.574219-24.621094 16.398438-39.582031 16.398438h-61.496094v16.808594c-18.230469 3.71875-32 19.871094-32 39.191406 0 20.441406 15.472656 37.160156 35.289062 39.519531 5.789063 20.839844 19.03125 38.578125 36.710938 50.136719v16.574219l-72 24v-74.230469h-16v-32h-176v32h-16v256h208v-32h288v-93.398438c0-24.144531-15.390625-45.496093-38.289062-53.128906zm-41.710938-117.472656v-38.527344c9.289062 3.3125 16 12.113282 16 22.527344 0 10.535156-6.871094 19.414062-16.335938 22.632812.167969-2.199218.335938-4.394531.335938-6.632812zm-192-16c0-10.414062 6.710938-19.214844 16-22.527344v38.527344c0 2.238281.167969 4.433594.335938 6.632812-9.464844-3.21875-16.335938-12.097656-16.335938-22.632812zm-192 40h144v16h-144zm160 256h-176v-224h176zm190.703125-170.664062-10.792969 51.265624-31.933594-31.9375 29.625-23.695312zm-54.703125 8.417968-32-25.601562v-10.265625c9.9375 3.898437 20.703125 6.113281 32 6.113281s22.0625-2.214844 32-6.113281v10.265625zm-72-117.753906v-56h45.496094c19.230468 0 37.3125-7.488281 50.902344-21.089844l9.34375-9.335937c2.746093-2.75 8.089843-1.292969 9.042968 2.503906 3.558594 14.28125 15.136719 24.824219 29.214844 27.335937v56.585938c0 39.695312-32.296875 72-72 72s-72-32.304688-72-72zm30.398438 104.96875 29.625 23.695312-31.933594 31.9375-10.792969-51.265624zm-78.398438 143.03125v-116.902344l22.488281-7.496094-6.914062 55.285157 15.265625 15.273437-8.160156 24.488282 35.222656 29.351562zm41.3125-34.648438 7.839844-23.511718-16.738282-16.726563 6.890626-55.113281 10.703124-3.566406 27.113282 128.765625zm49.695312 18.097657-10.976562-52.152344 5.785156-5.785156 9.953125 19.902343zm14.054688 16.550781 6-48h17.875l6 48zm25.992188-64h-22.101563l-11.210937-22.425781 22.257812-22.261719 22.265625 22.261719zm17.9375 47.449219-4.753907-38.042969 9.953125-19.902344 5.785156 5.785156zm40.992187-117.023438 10.703125 3.566407 6.886719 55.113281-16.734375 16.726562 7.839844 23.511719-35.816407 29.839844zm82.015625 133.574219h-89.902344l35.214844-29.351562-8.160156-24.488282 15.261718-15.273437-6.910156-55.285157 27.136719 9.046876c16.367187 5.457031 27.359375 20.703124 27.359375 37.953124zm0 0"/><path d="m360 216h-16c0 8.824219-7.175781 16-16 16s-16-7.175781-16-16h-16c0 17.648438 14.351562 32 32 32s32-14.351562 32-32zm0 0"/><path d="m176 272h-144v48h144zm-112 32h-16v-16h16zm32 0h-16v-16h16zm32 0h-16v-16h16zm32 0h-16v-16h16zm0 0"/><path d="m176 336h-144v48h144zm-112 32h-16v-16h16zm32 0h-16v-16h16zm32 0h-16v-16h16zm32 0h-16v-16h16zm0 0"/></svg>