<svg height="496pt" viewBox="-48 0 496 496" width="496pt" xmlns="http://www.w3.org/2000/svg"><path d="m76.441406 0-76.441406 84.929688v411.070312h400v-496zm-4.441406 28.847656v51.152344h-46.039062zm312 451.152344h-368v-384h72v-80h296zm0 0"/><path d="m288 464h-176v-117.824219h16v101.824219h144v-101.824219h16zm0 0"/><path d="m160 384h80v64h-80zm0 0" fill="#f0bc5e"/><path d="m200 368c-13.230469 0-24-10.769531-24-24s10.769531-24 24-24 24 10.769531 24 24-10.769531 24-24 24zm0-32c-4.414062 0-8 3.585938-8 8s3.585938 8 8 8 8-3.585938 8-8-3.585938-8-8-8zm0 0"/><path d="m222.527344 65.136719-8.28125-33.136719h-28.492188l-8.28125 33.136719c-50.472656 7.101562-89.472656 50.464843-89.472656 102.863281v8l19.304688-.007812 2.34375-2.328126c3.832031-3.800781 16.03125-13.664062 26.351562-13.664062s22.519531 9.863281 26.351562 13.664062l5.65625 5.59375 5.640626-5.59375c2.863281-2.839843 10.40625-9.070312 18.351562-12.03125v78.367188h16v-78.367188c7.945312 2.960938 15.488281 9.191407 18.351562 12.03125l5.65625 5.59375 5.640626-5.59375c3.832031-3.800781 16.03125-13.664062 26.351562-13.664062s22.519531 9.863281 26.351562 13.664062l2.351563 2.335938h19.296875v-8c0-52.398438-39-95.761719-89.472656-102.863281zm-22.527344 16.976562c6.742188 6.460938 20.566406 25.046875 23.425781 69.320313-6.585937-3.945313-14.800781-7.433594-23.425781-7.433594s-16.839844 3.488281-23.425781 7.433594c2.859375-44.273438 16.683593-62.859375 23.425781-69.320313zm1.753906-34.113281 4.007813 16h-11.515625l4.011718-16zm-97.042968 108.800781c5.03125-39.457031 36.328124-70.746093 75.730468-75.953125-8.609375 12.710938-17.855468 34.617188-19.96875 71.222656-6.753906-4.199218-15.382812-8.070312-24.472656-8.070312-12.542969 0-24.3125 7.359375-31.289062 12.800781zm159.289062-12.800781c-9.089844 0-17.71875 3.871094-24.472656 8.070312-2.121094-36.605468-11.367188-58.511718-19.96875-71.222656 39.402344 5.207032 70.699218 36.496094 75.730468 75.953125-6.976562-5.441406-18.746093-12.800781-31.289062-12.800781zm0 0"/><path d="m293.886719 360c-5.542969 0-10.855469-1.726562-15.351563-4.984375l-78.535156-57.128906-78.527344 57.121093c-4.503906 3.265626-9.816406 4.992188-15.359375 4.992188-14.402343 0-26.113281-11.710938-26.113281-26.113281v-4.566407c0-8.417968 4.089844-16.351562 10.9375-21.242187l109.0625-77.910156 109.0625 77.902343c6.847656 4.898438 10.9375 12.832032 10.9375 21.25v4.566407c0 14.402343-11.710938 26.113281-26.113281 26.113281zm0 0" fill="#f0bc5e"/></svg>