<svg height="496pt" viewBox="0 0 496 496" width="496pt" xmlns="http://www.w3.org/2000/svg"><path d="m448 480h-208v-150.398438h-16v150.398438h-208v-192h208v6.214844h16v-222.214844h-16v136h-208v32h-16v256h464v-166.398438h-16zm-352-224v16h-32v-16zm96 0v16h-32v-16zm-48 16h-32v-16h32zm64 0v-16h16v16zm-176-48h192v16h-192zm16 32v16h-32v-16zm0 0"/><path d="m448 72h16v222.214844h-16zm0 0"/><path d="m432 96h-176v48h176zm-64 16v16h-48v-16zm-96 0h32v16h-32zm144 16h-32v-16h32zm0 0"/><path d="m432 160h-176v48h176zm-64 16v16h-48v-16zm-96 0h32v16h-32zm144 16h-32v-16h32zm0 0"/><path d="m176 432v-96h-112v96zm-16-16h-32v-64h32zm-80-64h32v64h-32zm0 0"/><path d="m400 368v-48h-48v48zm-32-32h16v16h-16zm0 0"/><path d="m336 368v-48h-48v48zm-32-32h16v16h-16zm0 0"/><g fill="#F5A623"><path d="m344 384c-22.054688 0-40 17.945312-40 40v56h80v-56c0-22.054688-17.945312-40-40-40zm0 0"/><path d="m494.441406 80h-300.882812l50-80h200.875zm0 0"/><path d="m496 365.59375-152-84.441406-152 84.441406v-58.304688l152-84.441406 152 84.441406zm0 0"/></g></svg>