<svg height="496pt" viewBox="0 -15 496 495" width="496pt" xmlns="http://www.w3.org/2000/svg"><path d="m80 184.5v-20.40625c-5.878906-5.3125-10.511719-11.96875-13.207031-19.59375h-2.800781c-13.25 0-23.992188-10.742188-23.992188-23.992188 0-13.253906 10.742188-24.007812 24-24.007812h9.375c14.488281 0 28.386719-5.753906 38.625-16 10.246094 10.246094 24.136719 16 38.625 16h9.375c13.257812 0 24 10.742188 24 24s-10.742188 24-24 24h-2.785156c-2.695313 7.625-7.328125 14.28125-13.207032 19.59375v20.40625l48 21.335938v-125.335938c0-44.113281-35.886718-80-80-80-44.113281 0-80.007812 35.886719-80.007812 80v125.335938zm0 0" fill="#F5A623"/><path d="m384 .5c-44.113281 0-80 35.886719-80 80v40h8c0-13.257812 10.742188-24 24-24h96c13.257812 0 24 10.742188 24 24h8v-40c0-44.113281-35.886719-80-80-80zm0 0" fill="#F5A623"/><path d="m472.246094 200.738281-48.246094-21.429687v-11.6875c4.367188-4.464844 7.960938-9.671875 10.648438-15.386719 16.390624-1.375 29.351562-14.992187 29.351562-31.734375 0-17.648438-14.351562-32-32-32h-96c-17.648438 0-32 14.359375-32 32.007812 0 16.734376 12.960938 30.351563 29.351562 31.726563 2.6875 5.714844 6.28125 10.921875 10.648438 15.386719v11.6875l-48.238281 21.4375c-14.433594 6.410156-23.761719 20.753906-23.761719 36.554687v83.199219h224v-83.199219c0-15.800781-9.328125-30.144531-23.753906-36.5625zm-43.671875-1.894531-15.917969 37.152344-17.257812-12.9375 22.992187-28.734375zm-44.574219 12.847656-24-30v-2.671875c7.289062 3.472657 15.398438 5.480469 24 5.480469s16.710938-2.007812 24-5.480469v2.671875zm0-43.191406c-22.054688 0-40-17.945312-40-40v-24h80v24c0 22.054688-17.945312 40-40 40zm64-48c0 6.023438-3.390625 11.222656-8.328125 13.953125.207031-1.960937.328125-3.945313.328125-5.953125v-21.777344c4.761719 2.777344 8 7.882813 8 13.777344zm-128 .007812c0-5.894531 3.238281-11.007812 8-13.785156v21.777344c0 2.015625.121094 4 .328125 5.953125-4.9375-2.722656-8.328125-7.921875-8.328125-13.945313zm29.609375 73.808594 22.992187 28.734375-17.257812 12.9375-15.917969-37.144531zm-61.609375 42.984375c0-9.480469 5.59375-18.089843 14.257812-21.929687l22.550782-10.023438 23.855468 55.664063 27.335938-20.511719v64h-40v-40h-16v40h-32zm192 67.199219h-32v-40h-16v40h-40v-64l27.34375 20.511719 23.855469-55.664063 22.554687 10.023438c8.652344 3.839844 14.246094 12.449218 14.246094 21.929687zm0 0"/><path d="m200.246094 200.738281-48.246094-21.429687v-11.6875c4.367188-4.464844 7.960938-9.671875 10.648438-15.386719 16.390624-1.375 29.351562-14.992187 29.351562-31.734375 0-17.648438-14.351562-32-32-32h-9.367188c-12.457031 0-24.167968-4.847656-32.976562-13.65625l-5.65625-5.65625-5.65625 5.65625c-8.808594 8.808594-20.519531 13.65625-32.976562 13.65625h-9.367188c-17.648438 0-32 14.359375-32 32.007812 0 16.734376 12.960938 30.351563 29.351562 31.726563 2.6875 5.714844 6.28125 10.921875 10.648438 15.386719v11.6875l-48.238281 21.4375c-14.433594 6.410156-23.761719 20.753906-23.761719 36.554687v83.199219h92.121094v-16h-28.121094v-23.734375l-6.167969-3.699219c-6.0625-3.636718-9.832031-10.285156-9.832031-17.367187 0-7.078125 3.769531-13.734375 9.832031-17.375l6.167969-3.6875v-38.273438l10.640625-4.726562c5.679687 12.152343 20.214844 20.863281 37.359375 20.863281s31.679688-8.710938 37.359375-20.863281l10.640625 4.726562v38.273438l6.167969 3.695312c6.0625 3.640625 9.832031 10.296875 9.832031 17.367188 0 6.097656-2.703125 11.808593-7.425781 15.671875l10.152343 12.375c8.433594-6.917969 13.273438-17.132813 13.273438-28.046875 0-12.023438-6.078125-23.375-16-30.070313v-22.160156l17.753906 7.886719c8.652344 3.855469 14.246094 12.464843 14.246094 21.945312v63.421875h16v-63.421875c0-15.800781-9.328125-30.144531-23.753906-36.5625zm-24.246094-80.238281c0 6.023438-3.390625 11.222656-8.328125 13.953125.207031-1.960937.328125-3.945313.328125-5.953125v-21.777344c4.761719 2.777344 8 7.882813 8 13.777344zm-64-29.320312c10.984375 8.632812 24.449219 13.320312 38.632812 13.320312h1.367188v24c0 22.054688-17.945312 40-40 40s-40-17.945312-40-40v-24h1.367188c14.183593 0 27.648437-4.6875 38.632812-13.320312zm-64 29.328124c0-5.894531 3.238281-11.007812 8-13.785156v21.777344c0 2.015625.121094 4 .328125 5.953125-4.9375-2.722656-8.328125-7.921875-8.328125-13.945313zm0 109.128907c-9.910156 6.6875-16 18.039062-16 30.070312s6.089844 23.386719 16 30.074219v14.71875h-32v-67.199219c0-9.480469 5.59375-18.089843 14.257812-21.929687l17.742188-7.894532zm64-29.136719c-13.007812 0-24-7.328125-24-16v-5.480469c7.289062 3.472657 15.398438 5.480469 24 5.480469s16.710938-2.007812 24-5.480469v5.480469c0 8.671875-10.992188 16-24 16zm0 0"/><path d="m160 464.5c-52.9375 0-96-43.0625-96-96s43.0625-96 96-96c40.648438 0 77.007812 26.03125 90.449219 64h167.976562l29.574219 19.71875v24.5625l-29.574219 19.71875h-21.738281l-12.6875-12.6875-12.6875 12.6875h-22.625l-12.6875-12.6875-12.6875 12.6875h-72.863281c-13.441407 37.96875-49.800781 64-90.449219 64zm0 0" fill="#F5A623"/><path d="m160 432.5c-35.289062 0-64-28.710938-64-64s28.710938-64 64-64 64 28.710938 64 64-28.710938 64-64 64zm0-112c-26.472656 0-48 21.527344-48 48s21.527344 48 48 48 48-21.527344 48-48-21.527344-48-48-48zm0 0"/></svg>