<svg height="496pt" viewBox="0 0 496 496" width="496pt" xmlns="http://www.w3.org/2000/svg"><path d="m328 72v-40h-136v112h176v-72zm0 0" fill="#f0bc5e"/><path d="m160 464h-128v-112h128zm0 0" fill="#f0bc5e"/><path d="m472 240h-72v-171.3125l-68.6875-68.6875h-331.3125v496h400v-48h72c13.230469 0 24-10.769531 24-24v-160c0-13.230469-10.769531-24-24-24zm-136-212.6875 36.6875 36.6875h-36.6875zm48 452.6875h-368v-464h304v64h64v160h-168c-13.230469 0-24 10.769531-24 24v160c0 13.230469 10.769531 24 24 24h168zm96-56c0 4.40625-3.585938 8-8 8h-256c-4.414062 0-8-3.59375-8-8v-160c0-4.40625 3.585938-8 8-8h256c4.414062 0 8 3.59375 8 8zm0 0"/><path d="m368 288c0-8.824219-7.175781-16-16-16h-112c-8.824219 0-16 7.175781-16 16v48c0 8.824219 7.175781 16 16 16h112c8.824219 0 16-7.175781 16-16zm-16 48h-112l-.007812-48h112.007812zm0 0"/><path d="m384 272h80v16h-80zm0 0"/><path d="m384 304h80v16h-80zm0 0"/><path d="m224 368h32v16h-32zm0 0"/><path d="m272 368h32v16h-32zm0 0"/><path d="m320 368h32v16h-32zm0 0"/><path d="m224 400h128v16h-128zm0 0"/><path d="m432 352c-1.886719 0-3.742188.230469-5.585938.566406-.566406.105469-1.117187.210938-1.671874.34375-1.4375.347656-2.847657.777344-4.222657 1.3125-.847656.328125-1.65625.722656-2.472656 1.121094-.679687.335938-1.382813.640625-2.046875 1.023438-4.847656-2.847657-10.359375-4.367188-16-4.367188-17.648438 0-32 14.351562-32 32s14.351562 32 32 32c5.640625 0 11.152344-1.519531 16-4.359375.664062.382813 1.359375.6875 2.046875 1.023437.816406.398438 1.625.792969 2.472656 1.121094 1.375.535156 2.785157.96875 4.222657 1.3125.554687.125 1.113281.238282 1.671874.34375 1.84375.328125 3.699219.558594 5.585938.558594 17.648438 0 32-14.351562 32-32s-14.351562-32-32-32zm-48 32c0-8.824219 7.175781-16 16-16 1.398438 0 2.769531.257812 4.113281.632812-2.546875 4.574219-4.113281 9.765626-4.113281 15.367188s1.566406 10.792969 4.113281 15.367188c-1.34375.375-2.714843.632812-4.113281.632812-8.824219 0-16-7.175781-16-16zm48 16c-1.015625 0-2.007812-.121094-2.976562-.304688-.800782-.160156-1.582032-.398437-2.351563-.679687-.121094-.039063-.246094-.070313-.367187-.113281-1.785157-.703125-3.464844-1.742188-4.945313-3.078125l-.933594-.839844c-2.722656-2.863281-4.425781-6.71875-4.425781-10.984375 0-4.28125 1.710938-8.144531 4.449219-11.015625l.894531-.808594c1.488281-1.335937 3.160156-2.367187 4.953125-3.070312.128906-.050781.253906-.074219.382813-.121094.769531-.28125 1.542968-.519531 2.335937-.679687.976563-.183594 1.96875-.304688 2.984375-.304688 8.824219 0 16 7.175781 16 16s-7.175781 16-16 16zm0 0"/><path d="m87.503906 412.191406-17.847656-17.847656-11.3125 11.3125 30.152344 30.152344 93.617187-110.640625-12.226562-10.335938zm0 0"/><path d="m208 200.136719c0-17.769531-11.929688-33.585938-29.015625-38.464844l-26.984375-7.703125v-4.082031c14.488281-10.132813 24-26.910157 24-45.886719v-16c0-30.878906-25.128906-56-56-56s-56 25.121094-56 56v16c0 18.976562 9.511719 35.761719 24 45.886719v4.082031l-26.984375 7.710938c-17.085937 4.871093-29.015625 20.6875-29.015625 38.457031v23.863281h176zm-128-96.136719v-16c0-22.054688 17.945312-40 40-40s40 17.945312 40 40v16c0 22.054688-17.945312 40-40 40s-40-17.945312-40-40zm54.710938 53.976562-14.710938 14.710938-14.710938-14.710938c4.695313 1.28125 9.613282 2.023438 14.710938 2.023438s10.015625-.742188 14.710938-2.023438zm57.289062 50.023438h-144v-7.863281c0-10.664063 7.160156-20.152344 17.40625-23.082031l28.265625-8.070313 26.328125 26.328125 26.328125-26.328125 28.265625 8.070313c10.246094 2.9375 17.40625 12.425781 17.40625 23.082031zm0 0"/><path d="m32 240h144v16h-144zm0 0"/><path d="m32 272h144v16h-144zm0 0"/><path d="m32 304h96v16h-96zm0 0"/><path d="m224 208h144v16h-144zm0 0"/><path d="m224 176h144v16h-144zm0 0"/></svg>