<svg height="496pt" viewBox="0 0 496 496" width="496pt" xmlns="http://www.w3.org/2000/svg"><g fill="#f0bc5e"><path d="m272 128h64v72h-64zm0 0"/><path d="m352 128h64v72h-64zm0 0"/><path d="m304 352h80v104h-80zm0 0"/></g><path d="m472 448h-8v-256h-16v-96h-32.472656c-3.703125-33.320312-30.214844-59.824219-63.527344-63.527344v-32.472656h-16v32.472656c-33.3125 3.703125-59.824219 30.207032-63.527344 63.527344h-32.472656v96h-16v64h-16v-105.886719l-32-64v-38.113281h-16v-48h-48v48h-16v38.113281l-32 64v105.886719h-32v192h-8c-13.230469 0-24 10.769531-24 24v24h496v-24c0-13.230469-10.769531-24-24-24zm-128-400c28.152344 0 51.457031 20.910156 55.359375 48h-110.71875c3.902344-27.089844 27.207031-48 55.359375-48zm-88 64h176v80h-176zm192 96v240h-208v-240zm-284.945312-112 24 48h-102.109376l24-48zm-35.054688-80h16v32h-16zm-16 48h48v16h-48zm-32 96h112v96h-16v-80h-80v80h-16zm80 96h-48v-64h48zm-112 16h176v176h-176zm432 208h-464v-8c0-4.414062 3.59375-8 8-8h448c4.40625 0 8 3.585938 8 8zm0 0"/><path d="m432 224h-176v48h176zm-96 16h16v16h-16zm-16 16h-16v-16h16zm48-16h16v16h-16zm-96 0h16v16h-16zm144 16h-16v-16h16zm0 0"/><path d="m432 288h-176v48h176zm-96 16h16v16h-16zm-16 16h-16v-16h16zm48-16h16v16h-16zm-96 0h16v16h-16zm144 16h-16v-16h16zm0 0"/><path d="m128 432h-64v-144h64zm0 0" fill="#f0bc5e"/><path d="m208 432h-64v-144h64zm0 0" fill="#f0bc5e"/></svg>