<svg height="496pt" viewBox="0 0 496 496" width="496pt" xmlns="http://www.w3.org/2000/svg"><g fill="#f0bc5e"><path d="m240 336h48v48h-48zm0 0"/><path d="m240 416h48v48h-48zm0 0"/><path d="m448 384h-64v-48h64zm0 0"/><path d="m448 464h-64v-48h64zm0 0"/><path d="m368 384h-64v-48h64zm0 0"/><path d="m368 464h-64v-48h64zm0 0"/></g><path d="m496 80v-16c0-8.824219-7.175781-16-16-16h-51.054688l-24-48h-313.890624l-24 48h-51.054688c-8.824219 0-16 7.175781-16 16v16c0 8.824219 7.175781 16 16 16v160h-16v240h480v-176c8.824219 0 16-7.175781 16-16v-16c0-8.824219-7.175781-16-16-16v-176c8.824219 0 16-7.175781 16-16zm-395.054688-64h294.109376l16 32h-326.109376zm-84.945312 48h464l.007812 16h-464.007812zm304 208v-176h16v176zm-128-16v-160h112v176h-64v-16zm-16-160v160h-16v-160zm-144 0h112v160h-112zm192 176v16h-208v-16zm-112 96v112h-64v-144h64v16h16v-16h64v144h-64v-112zm80-48h-144v-16h144zm-176-16h16v176h-16zm192 176v-176h16v176zm256 0h-224v-160h224zm16-176h-240v-16h240zm-48-32h-16v-16h16zm-32 0h-16v-16h16zm64 0h-16v-32h-80v32h-16v-176h112zm0 0"/><path d="m48 112v48h80v-48zm16 16h16v16h-16zm48 16h-16v-16h16zm0 0"/><path d="m48 224h80v-48h-80zm64-16h-16v-16h16zm-48-16h16v16h-16zm0 0"/><path d="m448 112h-80v48h80zm-64 16h16v16h-16zm48 16h-16v-16h16zm0 0"/><path d="m448 176h-80v48h80zm-64 16h16v16h-16zm48 16h-16v-16h16zm0 0"/><path d="m288 112h-80v48h80zm-64 16h16v16h-16zm48 16h-16v-16h16zm0 0"/><path d="m288 176h-80v48h80zm-64 16h16v16h-16zm48 16h-16v-16h16zm0 0"/></svg>