<svg height="496pt" viewBox="0 0 496 496" width="496pt" xmlns="http://www.w3.org/2000/svg"><path d="m144 184v-64h-112v104h272v-40zm0 0" fill="#f0bc5e"/><path d="m474.855469 287.585938-26.457031-26.480469c-13.589844-13.609375-31.679688-21.105469-50.917969-21.105469h-61.480469v-240h-251.3125l-84.6875 84.6875v347.3125h97.472656c3.3125 9.289062 12.113282 16 22.527344 16h32.710938v-16h-32.710938c-4.414062 0-8-3.585938-8-8v-8h52.257812v-16h-52.257812v-30.328125c0-11.335937 7.726562-20.96875 18.792969-23.433594l49.695312-11.046875 46.535157-58.175781c10.695312-13.359375 26.632812-21.015625 43.738281-21.015625h126.71875c14.960937 0 29.03125 5.832031 39.617187 16.425781l11.796875 11.804688c-5.75 8.058593-8.894531 17.664062-8.894531 27.769531 0 23.710938 17.296875 43.40625 39.921875 47.265625l-.027344 40.734375h-52.152343v16h52.144531l-.007813 8c0 4.414062-3.589844 8-8 8h-32.589844v16h32.589844c13.21875 0 23.992188-10.761719 24-23.984375l.050782-85.503906c.007812-19.230469-7.472657-37.328125-21.074219-50.925781zm-394.855469-260.273438v52.6875h-52.6875zm240 212.6875h-49.238281c-21.992188 0-42.488281 9.847656-56.226563 27.015625l-43.015625 53.792969-44.191406 9.816406c-18.457031 4.101562-31.328125 20.160156-31.328125 39.046875v46.328125h-80v-320h80v-80h224zm159.929688 102.839844c-13.730469-3.601563-23.929688-16-23.929688-30.839844 0-5.792969 1.640625-11.289062 4.503906-16.152344l3.039063 3.046875c10.570312 10.578125 16.394531 24.648438 16.386719 39.609375zm0 0"/><path d="m248.3125 432h95.6875v16h-95.6875zm0 0"/><path d="m392 272h-109.265625c-14.277344 0-27.71875 6.296875-36.871094 17.265625l-29.863281 35.839844v74.894531h16v-64h72v16h-32v16h32v32h-68.273438v16h120.53125v-16h-36.257812v-64h88v16h-32v16h32v32h16v-96c0-17.648438-14.351562-32-32-32zm-150.921875 48 17.066406-20.488281c6.101563-7.320313 15.0625-11.511719 24.589844-11.511719h21.265625v32zm166.921875 0h-88v-32h72c8.824219 0 16 7.175781 16 16zm0 0"/><path d="m304 160h-144v-128h144zm-128-16h112v-96h-112zm0 0"/><path d="m32 112h112v16h-112zm0 0"/><path d="m32 144h112v16h-112zm0 0"/><path d="m32 176h272v16h-272zm0 0"/><path d="m288 208h16v16h-16zm0 0"/><path d="m32 208h240v16h-240zm0 0"/><path d="m72 288c-4.414062 0-8-3.585938-8-8s3.585938-8 8-8 8 3.585938 8 8h16c0-10.414062-6.710938-19.214844-16-22.527344v-17.472656h-16v17.472656c-9.289062 3.3125-16 12.113282-16 22.527344 0 13.230469 10.769531 24 24 24 4.414062 0 8 3.585938 8 8s-3.585938 8-8 8-8-3.585938-8-8h-16c0 10.414062 6.710938 19.214844 16 22.527344v17.472656h16v-17.472656c9.289062-3.3125 16-12.113282 16-22.527344 0-13.230469-10.769531-24-24-24zm0 0"/><path d="m392 496c-30.871094 0-56-25.128906-56-56s25.128906-56 56-56 56 25.128906 56 56-25.128906 56-56 56zm0 0" fill="#f0bc5e"/><path d="m392 464c-13.230469 0-24-10.769531-24-24s10.769531-24 24-24 24 10.769531 24 24-10.769531 24-24 24zm0-32c-4.414062 0-8 3.585938-8 8s3.585938 8 8 8 8-3.585938 8-8-3.585938-8-8-8zm0 0"/><path d="m200 496c-30.871094 0-56-25.128906-56-56s25.128906-56 56-56 56 25.128906 56 56-25.128906 56-56 56zm0 0" fill="#f0bc5e"/><path d="m200 464c-13.230469 0-24-10.769531-24-24s10.769531-24 24-24 24 10.769531 24 24-10.769531 24-24 24zm0-32c-4.414062 0-8 3.585938-8 8s3.585938 8 8 8 8-3.585938 8-8-3.585938-8-8-8zm0 0"/></svg>