<svg height="496pt" viewBox="0 0 496 496" width="496pt" xmlns="http://www.w3.org/2000/svg"><path d="m216 392h240v96h-240zm0 0" fill="#f0bc5e"/><path d="m400 128c-5.640625 0-11.152344-1.519531-16-4.367188-4.847656 2.847657-10.359375 4.367188-16 4.367188-17.648438 0-32-14.351562-32-32 0-3.183594.488281-6.320312 1.457031-9.351562-6.007812-5.9375-9.457031-14.015626-9.457031-22.648438 0-14.886719 10.214844-27.441406 24.015625-30.992188-.007813-.335937-.015625-.671874-.015625-1.007812 0-17.648438 14.351562-32 32-32s32 14.351562 32 32c0 .335938-.007812.671875-.015625 1.007812 13.800781 3.550782 24.015625 16.105469 24.015625 30.992188 0 8.632812-3.449219 16.710938-9.457031 22.648438.96875 3.03125 1.457031 6.167968 1.457031 9.351562 0 17.648438-14.351562 32-32 32zm0 0" fill="#f0bc5e"/><path d="m464 256v-48h16v-48h-88v-80h-16v80h-152v-42.648438h-16v138.648438h-32v224h-144v-128h-16v144h480v-240zm-16 0h-16v-48h16zm-160-48v48h-16v-48zm16 0h32v48h-32zm48 0h16v48h-16zm32 0h32v48h-32zm80-32v16h-240v-16zm-240 32h32v48h-32zm256 64v16h-288v-16zm-32 176h-32v-16h32zm-224-16h32v16h-32zm48 0h32v16h-32zm48 0h32v16h-32zm48 0h32v16h-32zm80-16h-32v-16h32zm-48 0h-32v-16h32zm-48 0h-32v-16h32zm-48 0h-32v-16h32zm-48 0h-32v-16h32zm-32 48h32v16h-32zm48 0h32v16h-32zm48 0h32v16h-32zm48 0h32v16h-32zm48 0h32v16h-32zm-40-144v16h72v48h-224v-48h136v-16h-168v-16h288v16zm-184 16h16v144h-16zm272 144v-144h16v144zm0 0"/><path d="m144 384h-80v80h80zm-16 64h-48v-48h48zm0 0"/><path d="m32 117.351562h16v188.832032h-16zm0 0"/><path d="m192 128h-128v80h128zm-112 16h40v48h-40zm96 48h-40v-48h40zm0 0"/><g fill="#f0bc5e"><path d="m176 273.328125-176 31.992187v54.679688h16.761719l159.238281-30.328125zm0 0"/><path d="m256 144h-18.535156l-109.464844-80-109.464844 80h-18.535156v-48l128-96 128 96zm0 0"/></g></svg>