<svg height="496pt" viewBox="0 0 496 496" width="496pt" xmlns="http://www.w3.org/2000/svg"><path d="m283.3125 0h-283.3125v448h260.105469v-16h-244.105469v-416h256v80h80v136h16v-147.3125zm4.6875 27.3125 52.6875 52.6875h-52.6875zm0 0"/><path d="m80 304c8.824219 0 16 7.175781 16 16h16c0-14.863281-10.238281-27.289062-24-30.863281v-17.136719h-16v17.136719c-13.761719 3.574219-24 16-24 30.863281 0 17.648438 14.351562 32 32 32 8.824219 0 16 7.175781 16 16s-7.175781 16-16 16-16-7.175781-16-16h-16c0 14.863281 10.238281 27.289062 24 30.863281v17.136719h16v-17.136719c13.761719-3.574219 24-16 24-30.863281 0-17.648438-14.351562-32-32-32-8.824219 0-16-7.175781-16-16s7.175781-16 16-16zm0 0"/><path d="m188.28125 32h-120.5625l-35.71875 53.574219v106.425781h192v-106.425781zm-112 16h103.4375l21.335938 32h-146.109376zm67.71875 128h-32v-48h32zm16 0v-64h-64v64h-48v-80h160v80zm0 0"/><path d="m32 208h256v16h-256zm0 0"/><path d="m32 240h208v16h-208zm0 0"/><path d="m360 496c-74.992188 0-136-61.007812-136-136s61.007812-136 136-136 136 61.007812 136 136-61.007812 136-136 136zm0 0" fill="#f0bc5e"/><path d="m408 272h-96c-13.230469 0-24 10.769531-24 24v32c0 13.230469 10.769531 24 24 24h24v72c0 13.230469 10.769531 24 24 24s24-10.769531 24-24v-72h24c13.230469 0 24-10.769531 24-24v-32c0-13.230469-10.769531-24-24-24zm-24 16v48h-48v-48zm-80 40v-32c0-4.40625 3.59375-8 8-8h8v48h-8c-4.40625 0-8-3.59375-8-8zm64 96c0 4.40625-3.59375 8-8 8s-8-3.59375-8-8v-72h16zm48-96c0 4.40625-3.59375 8-8 8h-8v-48h8c4.40625 0 8 3.59375 8 8zm0 0"/><path d="m240 112h96v16h-96zm0 0"/><path d="m240 144h96v16h-96zm0 0"/><path d="m240 176h96v16h-96zm0 0"/></svg>