<svg height="496pt" viewBox="-1 0 495 496" width="496pt" xmlns="http://www.w3.org/2000/svg"><path d="m384.5 496h-384v-176h384zm0 0" fill="#f0bc5e"/><path d="m200.5 272h-96v-96h96zm0 0" fill="#f0bc5e"/><path d="m192.5 384c4.414062 0 8 3.585938 8 8h16c0-10.414062-6.710938-19.214844-16-22.527344v-17.472656h-16v17.472656c-9.289062 3.3125-16 12.113282-16 22.527344 0 13.230469 10.769531 24 24 24 4.414062 0 8 3.585938 8 8s-3.585938 8-8 8-8-3.585938-8-8h-16c0 10.414062 6.710938 19.214844 16 22.527344v17.472656h16v-17.472656c9.289062-3.3125 16-12.113282 16-22.527344 0-13.230469-10.769531-24-24-24-4.414062 0-8-3.585938-8-8s3.585938-8 8-8zm0 0"/><path d="m192.5 320c-48.519531 0-88 39.480469-88 88s39.480469 88 88 88 88-39.480469 88-88-39.480469-88-88-88zm0 160c-39.703125 0-72-32.296875-72-72s32.296875-72 72-72 72 32.296875 72 72-32.296875 72-72 72zm0 0"/><path d="m16.5 376h16v-24h24v-16h-40zm0 0"/><path d="m32.5 440h-16v40h40v-16h-24zm0 0"/><path d="m328.5 352h24v24h16v-40h-40zm0 0"/><path d="m352.5 464h-24v16h40v-40h-16zm0 0"/><path d="m493.445312 160-56-112h-12.945312v-48h-80v48h-144v-48h-80v48h-12.945312l-56 112h20.945312v160h16v-160h368v224h-72v16h88v-240zm-132.945312-144h48v32h-48zm-224 0h48v32h-48zm-19.054688 48h310.109376l40 80h-390.109376zm0 0"/><path d="m296.5 256h-48c-13.230469 0-24 10.769531-24 24v40h16v-40c0-4.414062 3.585938-8 8-8h48c4.414062 0 8 3.585938 8 8v40h16v-40c0-13.230469-10.769531-24-24-24zm0 0"/><path d="m328.5 176h-112v64h112zm-16 48h-80v-32h80zm0 0"/><path d="m440.5 272h-96v-96h96zm0 0" fill="#f0bc5e"/></svg>