<svg height="496pt" viewBox="0 0 496 496.704" width="496pt" xmlns="http://www.w3.org/2000/svg"><path d="m320.351562 464v-16c70.578126 0 128-57.425781 128-128h16c0 79.398438-64.597656 144-144 144zm0 0"/><path d="m439.28125 184.167969-36.273438-33.246094c3.289063-4.113281 5.34375-9.257813 5.34375-14.921875 0-7.816406-3.808593-14.695312-9.609374-19.078125l40.640624-40.640625c5.785157-5.785156 8.96875-13.472656 8.96875-21.65625 0-16.882812-13.742187-30.625-30.625-30.625-8.175781 0-15.871093 3.183594-21.65625 8.96875l-27.949218 27.953125c-1.960938 1.949219-4.664063 3.078125-7.433594 3.078125-5.289062 0-9.765625-3.953125-10.421875-9.199219l-3.992187-31.921875c-1.625-13.046875-12.769532-22.878906-25.921876-22.878906-13.152343 0-24.296874 9.832031-25.917968 22.878906l-3.992188 31.921875c-.65625 5.246094-5.136718 9.199219-10.425781 9.199219-2.769531 0-5.472656-1.128906-7.429687-3.078125l-27.953126-27.953125c-5.785156-5.785156-13.472656-8.96875-21.65625-8.96875-16.878906 0-30.625 13.742188-30.625 30.625 0 8.175781 3.183594 15.871094 8.96875 21.65625l40.640626 40.640625c-5.800782 4.382813-9.609376 11.261719-9.609376 19.078125 0 5.664062 2.054688 10.808594 5.34375 14.910156l-36.269531 33.25c-16.625 15.246094-30.019531 33.367188-39.816406 53.847656l14.4375 6.902344c8.90625-18.636718 21.089844-35.109375 36.183594-48.957031l39.234375-35.953125h137.773437l39.226563 35.960938c32.976562 30.222656 51.886718 73.207031 51.886718 117.941406v6.097656c0 88.222656-71.777343 160-160 160-45.910156 0-89.71875-19.910156-120.175781-54.625l-12.03125 10.546875c33.503907 38.183594 81.695313 60.078125 132.207031 60.078125 97.046876 0 176-78.953125 176-176v-6.097656c0-49.199219-20.808593-96.488282-57.070312-129.734375zm-230.929688-129.542969c0-8.066406 6.558594-14.625 14.625-14.625 3.847657 0 7.625 1.558594 10.34375 4.28125l27.953126 27.949219c4.933593 4.9375 11.765624 7.769531 18.742187 7.769531 13.34375 0 24.648437-9.984375 26.296875-23.214844l3.992188-31.914062c.632812-5.054688 4.953124-8.871094 10.046874-8.871094 5.097657 0 9.417969 3.816406 10.046876 8.863281l3.992187 31.914063c1.648437 13.238281 12.953125 23.222656 26.296875 23.222656 6.976562 0 13.808594-2.832031 18.746094-7.769531l27.949218-27.949219c2.722657-2.722656 6.488282-4.28125 10.34375-4.28125 8.066407 0 14.625 6.558594 14.625 14.625 0 3.847656-1.558593 7.621094-4.28125 10.34375l-47.03125 47.03125h-121.375l-47.03125-47.03125c-2.722656-2.722656-4.28125-6.488281-4.28125-10.34375zm48 89.375c-4.414062 0-8-3.585938-8-8s3.585938-8 8-8h128c4.417969 0 8 3.585938 8 8s-3.582031 8-8 8zm0 0"/><path d="m120.351562 496.703125-3.152343-1.351563c-70.984375-30.414062-116.847657-99.976562-116.847657-177.199218v-78.152344h28.777344c31.214844 0 61.839844-10.742188 86.222656-30.246094l5-3.992187 5 3.992187c24.382813 19.503906 55.007813 30.246094 86.222657 30.246094h28.777343v78.152344c0 77.222656-45.863281 146.792968-116.847656 177.199218zm0 0" fill="#F5A623"/><path d="m120.351562 344c-8.824218 0-16-7.175781-16-16s7.175782-16 16-16c8.824219 0 16 7.175781 16 16h16c0-14.871094-10.230468-27.289062-24-30.863281v-17.136719h-16v17.136719c-13.765624 3.574219-24 15.992187-24 30.863281 0 17.648438 14.351563 32 32 32 8.824219 0 16 7.175781 16 16s-7.175781 16-16 16c-8.824218 0-16-7.175781-16-16h-16c0 14.871094 10.234376 27.289062 24 30.863281v17.136719h16v-17.136719c13.769532-3.574219 24-15.992187 24-30.863281 0-17.648438-14.351562-32-32-32zm0 0"/></svg>