<svg height="496pt" viewBox="0 0 496 496" width="496pt" xmlns="http://www.w3.org/2000/svg"><path d="m124.441406 0-76.441406 84.929688v75.070312h16v-64h80v-80h288v144h16v-160zm-50.480468 80 54.039062-60.039062v60.039062zm0 0"/><path d="m160 32h256v16h-256zm0 0"/><path d="m160 64h256v16h-256zm0 0"/><path d="m248 176c-8.824219 0-16-7.175781-16-16s7.175781-16 16-16 16 7.175781 16 16h16c0-14.863281-10.230469-27.289062-24-30.863281v-17.136719h-16v17.136719c-13.769531 3.574219-24 16-24 30.863281 0 17.648438 14.351562 32 32 32 8.824219 0 16 7.175781 16 16s-7.175781 16-16 16-16-7.175781-16-16h-16c0 14.863281 10.230469 27.289062 24 30.863281v17.136719h16v-17.136719c13.769531-3.574219 24-16 24-30.863281 0-17.648438-14.351562-32-32-32zm0 0"/><path d="m384 238.945312-94.425781-62.945312 94.425781-62.945312v30.945312h112v64h-112zm0 0" fill="#f0bc5e"/><path d="m112 238.945312v-30.945312h-112v-64h112v-30.945312l94.425781 62.945312zm0 0" fill="#f0bc5e"/><path d="m480 224-32 9.054688v-25.054688h-16v29.585938l-74.078125 20.964843 6.925781 22.167969-99.742187 6.648438c-7.457031.496093-14.625 2.441406-21.320313 5.785156l-17.121094 8.558594c-7.601562-3.6875-15.910156-5.710938-24.433593-5.710938h-56.34375l-37.628907-18.816406 5.652344-18.085938-49.910156-18.152344v-32.945312h-16v27.128906l-30.59375-11.128906h-17.40625v176h69.878906l4.191406-13.425781 33.808594 20.28125 22.417969 5.839843c-1.464844 3.214844-2.296875 6.695313-2.296875 10.335938 0 13.472656 10.734375 24.410156 24.089844 24.878906.46875 13.355469 11.414062 24.089844 24.878906 24.089844 2.847656 0 5.632812-.585938 8.289062-1.527344 3.191407 10.121094 12.550782 17.527344 23.710938 17.527344 5.328125 0 10.503906-1.816406 14.765625-4.953125l5.921875 5.921875c4.527344 4.535156 10.558594 7.03125 16.96875 7.03125h1.375c10.359375 0 19.121094-6.632812 22.472656-15.839844 4.511719 4.871094 10.824219 7.839844 17.527344 7.839844 11.105469 0 20.382812-7.617188 23.113281-17.871094 2.808594 1.128906 5.789063 1.871094 8.886719 1.871094 11.105469 0 20.382812-7.617188 23.113281-17.871094 2.808594 1.128906 5.789063 1.871094 8.886719 1.871094 13.230469 0 24-10.769531 24-24v-2.664062c0-5.160157-1.703125-10.273438-4.808594-14.398438l-2.648437-3.53125 29.703125-23.765625 3.875 12.359375h93.878906v-176zm-421.878906 160h-42.121094v-143.488281l78.089844 28.390625zm56.976562 8.527344-36.105468-21.664063 24.441406-78.207031 38.679687 19.34375h60.125c7.503907 0 14.832031 2.105469 21.195313 6.078125l43.503906 27.1875c3.167969 1.980469 5.0625 5.40625 5.0625 9.148437v2.792969c0 5.953125-4.839844 10.792969-10.800781 10.792969-1.953125 0-3.863281-.527344-5.542969-1.535156l-30.046875-18.023438c-11.984375-7.175781-28.167969-5.175781-38.050781 4.6875l-46.015625 46.015625zm140.902344 79.472656c0 4.40625-3.585938 8-8 8h-1.375c-2.105469 0-4.167969-.855469-5.65625-2.34375l-6.625-6.625c-1.511719-1.511719-2.34375-3.527344-2.34375-5.664062v-1.367188c0-4.40625 3.585938-8 8-8h1.375c2.105469 0 4.167969.855469 5.65625 2.34375l6.625 6.625c1.511719 1.511719 2.34375 3.527344 2.34375 5.664062zm40-8c0 4.40625-3.585938 8-8 8-2.503906 0-4.894531-1.191406-6.398438-3.199219l-16-21.335937c-1.035156-1.375-1.601562-3.082032-1.601562-4.800782v-2.664062c0-4.40625 3.585938-8 8-8 2.503906 0 4.894531 1.191406 6.398438 3.199219l16 21.335937c1.035156 1.375 1.601562 3.082032 1.601562 4.800782zm32-16c0 4.40625-3.585938 8-8 8-2.503906 0-4.894531-1.191406-6.398438-3.199219l-16-21.335937c-1.035156-1.375-1.601562-3.082032-1.601562-4.800782v-2.664062c0-4.40625 3.585938-8 8-8 2.503906 0 4.894531 1.191406 6.398438 3.199219l16 21.335937c1.035156 1.375 1.601562 3.082032 1.601562 4.800782zm32-16c0 4.40625-3.585938 8-8 8-2.503906 0-4.894531-1.191406-6.398438-3.199219l-16-21.335937c-1.035156-1.375-1.601562-3.082032-1.601562-4.800782v-2.664062c0-4.40625 3.585938-8 8-8 2.503906 0 4.894531 1.191406 6.398438 3.199219l16 21.335937c1.035156 1.375 1.601562 3.082032 1.601562 4.800782zm-1.054688-33.398438-3.746093-5c-4.503907-6.007812-11.679688-9.601562-19.199219-9.601562-11.105469 0-20.382812 7.617188-23.113281 17.871094-2.808594-1.128906-5.789063-1.871094-8.886719-1.871094-11.105469 0-20.382812 7.617188-23.113281 17.871094-2.808594-1.128906-5.789063-1.871094-8.886719-1.871094-13.230469 0-24 10.769531-24 24v1.039062c-2.136719-.613281-4.335938-1.039062-6.625-1.039062h-1.375c-13.230469 0-24 10.769531-24 24v1.367188c0 1.023437.167969 2.015624.296875 3.023437l-.984375.984375c-1.671875 1.664062-3.984375 2.625-6.34375 2.625-4.945312 0-8.96875-4.023438-8.96875-8.96875 0-2.398438.929688-4.648438 2.625-6.34375l35.03125-35.03125-11.3125-11.3125-43.03125 43.03125c-1.671875 1.664062-3.984375 2.625-6.34375 2.625-4.945312 0-8.96875-4.023438-8.96875-8.96875 0-2.398438.929688-4.648438 2.625-6.34375l43.03125-43.03125-11.3125-11.3125-43.03125 43.03125c-1.671875 1.664062-3.984375 2.625-6.34375 2.625-4.945312 0-8.96875-4.023438-8.96875-8.96875 0-2.398438.929688-4.648438 2.625-6.34375l52.246094-52.246094c4.800781-4.800781 12.6875-5.777344 18.503906-2.28125l30.039062 18.023438c4.171876 2.496094 8.9375 3.816406 13.785157 3.816406 14.777343 0 26.800781-12.015625 26.800781-26.792969v-2.792969c0-9.300781-4.710938-17.796874-12.59375-22.71875l-32.40625-20.246093 7.9375-3.96875c4.78125-2.390625 9.894531-3.785157 15.222656-4.136719l103.59375-6.902344 23.375 74.816406zm121.054688-14.601562h-66.121094l-35.800781-114.558594 101.921875-29.121094zm0 0"/></svg>