<svg height="496pt" viewBox="0 -4 496 496" width="496pt" xmlns="http://www.w3.org/2000/svg"><g fill="#f0bc5e"><path d="m208 376.792969h80v104h-80zm0 0"/><path d="m80 200.792969h-48v-48h48zm0 0"/><path d="m144 200.792969h-48v-48h48zm0 0"/><path d="m112 328.792969h-80v-48h80zm0 0"/><path d="m464 200.792969h-48v-48h48zm0 0"/><path d="m400 200.792969h-48v-48h48zm0 0"/><path d="m464 328.792969h-80v-48h80zm0 0"/></g><path d="m472 120.792969v-32h-16v-32h-80v32h-32v-45.152344l-96-43.640625-96 43.640625v45.152344h-32v-32h-80v32h-16v32h-24v368h496v-368zm8 96h-144v-80h144zm-176 256h-112v-80h-48v-48h208v48h-48zm-184-368v16h-32v-16zm16 0h32v16h-32zm240 16v-16h32v16zm-16 0h-32v-16h32zm-8 208h-24v-32h24zm-176-80h64v32h-64zm0-64h64v48h-64zm80 0h64v48h-64zm-88 112v32h-24v-32zm16 0h32v32h-32zm48 0h32v32h-32zm48 0h32v32h-32zm-24-16v-32h64v32zm64-112h-64v-32h64zm-8-48h-32v-16h32zm-48 0h-32v-16h32zm-48 0h-32v-16h32zm24 16v32h-64v-32zm-80 112h-144v-16h144zm0 16v16h-32v64h-112v-80zm-32 96v16h-112v-16zm240 0h112v16h-112zm0-16v-64h-32v-16h144v80zm-32-96v-16h144v16zm88-128v-16h32v16zm-32-48h48v16h-48zm-92.9375-32h-102.125l51.0625-23.207031zm-131.0625 16h160v32h-160zm-112 16h48v16h-48zm-16 32h32v16h-32zm120 32v80h-144v-80zm-144 336v-80h112v80zm128-64h32v64h-32zm176 64v-64h32v64zm48 0v-80h112v80zm0 0"/><path d="m32 408.792969v48h80v-48zm16 16h16v16h-16zm48 16h-16v-16h16zm0 0"/><path d="m384 456.792969h80v-48h-80zm64-16h-16v-16h16zm-48-16h16v16h-16zm0 0"/></svg>