<svg height="496pt" viewBox="0 0 496 496" width="496pt" xmlns="http://www.w3.org/2000/svg"><g fill="#f0bc5e"><path d="m264 120h104v72h-104zm0 0"/><path d="m208 432c-52.9375 0-96-43.0625-96-96s43.0625-96 96-96 96 43.0625 96 96-43.0625 96-96 96zm0 0"/><path d="m104 112h64v64h-64zm0 0"/></g><path d="m456 296h-56v-211.3125l-84.6875-84.6875h-315.3125v496h400v-120h56c22.054688 0 40-17.945312 40-40s-17.945312-40-40-40zm-136-268.6875 52.6875 52.6875h-52.6875zm64 452.6875h-368v-464h288v80h80v200h-16v-16h-16v16h-22.488281c-16.847657-51.03125-64.910157-88-121.511719-88-70.574219 0-128 57.425781-128 128s57.425781 128 128 128c56.601562 0 104.664062-36.96875 121.511719-88h22.488281v16h16v-16h16zm-50.335938-168h18.335938v48h-18.335938c1.488282-7.785156 2.335938-15.792969 2.335938-24s-.847656-16.214844-2.335938-24zm-13.664062 24c0 61.761719-50.238281 112-112 112s-112-50.238281-112-112 50.238281-112 112-112 112 50.238281 112 112zm136 24h-88v-48h88c13.230469 0 24 10.769531 24 24s-10.769531 24-24 24zm0 0"/><path d="m200 328h16v16h-16zm0 0"/><path d="m232 328h16v16h-16zm0 0"/><path d="m168 328h16v16h-16zm0 0"/><path d="m56 176v16h160v-16h-16v-97.648438l36.648438 16.914063 6.703124-14.53125-107.351562-49.550781-107.351562 49.550781 6.703124 14.53125 36.648438-16.914063v97.648438zm32-105.03125 48-22.152344 48 22.152344v105.03125h-96zm0 0"/><path d="m264 112h104v16h-104zm0 0"/><path d="m264 144h104v16h-104zm0 0"/><path d="m264 176h72v16h-72zm0 0"/><path d="m352 176h16v16h-16zm0 0"/></svg>