<svg height="496pt" viewBox="0 0 496 496" width="496pt" xmlns="http://www.w3.org/2000/svg"><path d="m8 336h40v144h-40zm0 0" fill="#f0bc5e"/><path d="m463.503906 368h-3.265625c-3.734375 0-7.40625.640625-10.925781 1.894531l-89.472656 31.953125c.023437-.527344.160156-1.023437.160156-1.558594 0-13.023437-8.167969-24.921874-20.328125-29.601562l-68.871094-26.496094c-26.472656-10.183594-56.066406-10.863281-83.023437-1.878906l-53.074219 17.6875h-38.703125v-32h-96v160h96v-32h39.015625l145.320313 36.335938c9.761718 2.433593 19.792968 3.664062 29.816406 3.664062 18.078125 0 36.28125-4.097656 52.632812-11.832031l114.621094-54.296875c11.296875-5.351563 18.59375-16.871094 18.59375-29.375 0-17.921875-14.574219-32.496094-32.496094-32.496094zm-383.503906 104h-16v-64h-16v64h-32v-128h32v16h16v-16h16zm390.558594-56.59375-114.621094 54.296875c-22.105469 10.472656-47.914062 13.050781-71.730469 7.113281l-146.261719-36.578125-41.945312-.199219v-64.039062h41.296875l55.527344-18.511719c23.449219-7.808593 49.207031-7.222656 72.222656 1.648438l68.875 26.496093c6.03125 2.304688 10.078125 8.199219 10.078125 14.65625 0 2.941407-.863281 5.671876-2.28125 8.03125l-.40625.144532.128906.367187c-2.808594 4.304688-7.648437 7.167969-13.152344 7.167969h-3.722656c-2 0-3.964844-.375-5.832031-1.128906l-75.757813-30.304688-5.945312 14.859375 75.769531 30.300781c3.765625 1.503907 7.71875 2.273438 11.765625 2.273438h3.722656c9.144532 0 17.328126-3.945312 23.117188-10.152344l103.289062-36.886718c1.792969-.640626 3.65625-.960938 5.542969-.960938h3.265625c9.097656 0 16.496094 7.398438 16.496094 16.496094 0 6.34375-3.703125 12.199218-9.441406 14.910156zm0 0"/><path d="m296 176c-4.40625 0-8-3.59375-8-8h-16c0 10.414062 6.710938 19.214844 16 22.527344v17.472656h16v-17.472656c9.289062-3.3125 16-12.113282 16-22.527344 0-13.230469-10.769531-24-24-24-4.40625 0-8-3.59375-8-8s3.59375-8 8-8 8 3.59375 8 8h16c0-10.414062-6.710938-19.214844-16-22.527344v-17.472656h-16v17.472656c-9.289062 3.3125-16 12.113282-16 22.527344 0 13.230469 10.769531 24 24 24 4.40625 0 8 3.59375 8 8s-3.59375 8-8 8zm0 0"/><path d="m200 320h280v-109.335938h-16v93.335938h-16v-64h-48v-144h-16v208h-48v-80h-80v80h-48v-208h-16v144h-48v64h-16v-93.335938h-16v109.335938zm232-64v48h-32v-48zm-160-16h48v64h-48zm-112 64v-48h32v48zm0 0"/><path d="m48 376h16v16h-16zm0 0"/><g fill="#f0bc5e"><path d="m400 138.238281v56.859375l96 32.007813v-56.875zm0 0"/><path d="m192 138.238281-96 31.992188v56.875l96-32.007813zm0 0"/><path d="m432 125.886719-136-68-136 68v-57.886719l136-68 136 68zm0 0"/></g></svg>