<svg height="496pt" viewBox="0 -3 496 496" width="496pt" xmlns="http://www.w3.org/2000/svg"><path d="m152 313.921875h192v144h-192zm0 0" fill="#F5A623"/><path d="m496 201.921875h-74.601562l-173.398438-126.113281-173.398438 126.113281h-74.601562v-20.058594l248-181.863281 248 181.863281zm0 0" fill="#F5A623"/><path d="m344 297.921875v-80h-112v80zm-96-64h80v48h-80zm0 0"/><path d="m152 345.921875h192v16h-192zm0 0"/><path d="m152 377.921875h192v16h-192zm0 0"/><path d="m264 409.921875h80v16h-80zm0 0"/><path d="m152 409.921875h96v16h-96zm0 0"/><path d="m152 441.921875h160v16h-160zm0 0"/><path d="m328 441.921875h16v16h-16zm0 0"/><path d="m152 313.921875h16v16h-16zm0 0"/><path d="m184 313.921875h160v16h-160zm0 0"/><path d="m448 201.921875h-16v208h-56v-224h-171.3125l-84.6875 84.6875v139.3125h-56v-208h-16v224h72v64h256v-64h72zm-248 11.308594v52.691406h-52.6875zm160 260.691406h-224v-192h80v-80h144zm0 0"/><path d="m248 169.921875c17.648438 0 32-14.355469 32-32 0-17.648437-14.351562-32-32-32s-32 14.351563-32 32c0 17.644531 14.351562 32 32 32zm0-48c8.824219 0 16 7.175781 16 16 0 8.820313-7.175781 16-16 16s-16-7.179687-16-16c0-8.824219 7.175781-16 16-16zm0 0"/></svg>