<svg height="496pt" viewBox="0 0 496 496" width="496pt" xmlns="http://www.w3.org/2000/svg"><g fill="#f0bc5e"><path d="m96 208h64v88h-64zm0 0"/><path d="m384 144h-48v-48h48zm0 0"/><path d="m448 144h-48v-48h48zm0 0"/><path d="m384 208h-48v-48h48zm0 0"/><path d="m448 208h-48v-48h48zm0 0"/><path d="m384 272h-48v-48h48zm0 0"/><path d="m448 272h-48v-48h48zm0 0"/></g><path d="m248 384c4.40625 0 8 3.59375 8 8h16c0-10.414062-6.710938-19.214844-16-22.527344v-17.472656h-16v17.472656c-9.289062 3.3125-16 12.113282-16 22.527344 0 13.230469 10.769531 24 24 24 4.40625 0 8 3.59375 8 8s-3.59375 8-8 8-8-3.59375-8-8h-16c0 10.414062 6.710938 19.214844 16 22.527344v17.472656h16v-17.472656c9.289062-3.3125 16-12.113282 16-22.527344 0-13.230469-10.769531-24-24-24-4.40625 0-8-3.59375-8-8s3.59375-8 8-8zm0 0"/><path d="m496 80v-16h-16v-32h-16v-32h-144v32h-16v32h-16v16h16v208h-64v-96h16v-48h-16v-12.191406l-112-77.535156-48 33.230468v-24.734375h-48v57.957031l-16 11.082032v12.191406h-16v48h16v97.472656c-9.289062 3.3125-16 12.113282-16 22.527344v16c0 13.230469 10.769531 24 24 24h156.167969c-12.59375 15.222656-20.167969 34.742188-20.167969 56 0 48.519531 39.480469 88 88 88s88-39.480469 88-88c0-21.257812-7.574219-40.777344-20.167969-56h156.167969c13.230469 0 24-10.769531 24-24v-16c0-10.414062-6.710938-19.214844-16-22.527344v-209.472656zm-160-64h112v16h-112zm-16 32h144v16h-144zm-272 30.769531h16v19.804688l-16 11.082031zm-16 61.421875 96-66.464844 96 66.464844v3.808594h-192zm-16 19.808594h224v16h-224zm208 32v96h-192v-96zm24 288c-39.695312 0-72-32.304688-72-72s32.304688-72 72-72 72 32.304688 72 72-32.304688 72-72 72zm232-152c0 4.40625-3.59375 8-8 8h-173.558594c-14.296875-10.046875-31.671875-16-50.441406-16s-36.136719 5.953125-50.441406 16h-173.558594c-4.40625 0-8-3.59375-8-8v-16c0-4.40625 3.59375-8 8-8h448c4.40625 0 8 3.59375 8 8zm-16-40h-144v-208h144zm0 0"/></svg>