<svg height="496pt" viewBox="0 0 496 496" width="496pt" xmlns="http://www.w3.org/2000/svg"><g fill="#f0bc5e"><path d="m32 136h160v72h-160zm0 0"/><path d="m128 40h64v32h-64zm0 0"/><path d="m352 480h-80v-96h80zm0 0"/></g><path d="m464 376v104h-16v-64h-48v-144h-16v-32h-144v32h-16v224h256v-120zm-208-120h112v16h-112zm128 224h-144v-192h144zm16-48h32v48h-32zm0 0"/><path d="m368 304h-112v64h112zm-96 16h32v32h-32zm80 32h-32v-32h32zm0 0"/><path d="m224 0h-224v240h224zm-16 224h-192v-208h192zm0 0"/><path d="m112 32h-80v80h80zm-16 64h-48v-48h48zm0 0"/><path d="m128 32h64v16h-64zm0 0"/><path d="m128 64h64v16h-64zm0 0"/><path d="m32 128h160v16h-160zm0 0"/><path d="m32 160h48v16h-48zm0 0"/><path d="m96 160h96v16h-96zm0 0"/><path d="m176 192h16v16h-16zm0 0"/><path d="m32 192h128v16h-128zm0 0"/><path d="m123 342.246094 10-12.492188-45-35.992187-45 35.992187 10 12.492188 35-28.007813zm0 0"/><path d="m80 400v-56h-16v56c0 26.472656 21.527344 48 48 48h80v-16h-80c-17.648438 0-32-14.351562-32-32zm0 0"/><path d="m96 344v56c0 8.824219 7.175781 16 16 16h32v-16h-32v-56zm0 0"/><path d="m160 400h16v16h-16zm0 0"/><path d="m192 400h16v16h-16zm0 0"/><path d="m325 153.753906-10 12.492188 45 35.992187 45-35.992187-10-12.492188-35 28.007813zm0 0"/><path d="m368 96v56h16v-56c0-26.472656-21.527344-48-48-48h-80v16h80c17.648438 0 32 14.351562 32 32zm0 0"/><path d="m352 152v-56c0-8.824219-7.175781-16-16-16h-32v16h32v56zm0 0"/><path d="m272 80h16v16h-16zm0 0"/><path d="m240 80h16v16h-16zm0 0"/><path d="m400 313.222656v56.21875l96 16.007813v-56.226563zm0 0" fill="#f0bc5e"/></svg>