<svg height="496pt" viewBox="0 -3 496 496" width="496pt" xmlns="http://www.w3.org/2000/svg"><path d="m432 345.535156h-200l-8-8h-56v-48h48c8.839844 0 16-7.160156 16-16s-7.160156-16-16-16h-48l-4.433594-40h268.433594zm0 0" fill="#f0bc5e"/><path d="m304.023438 0-148.101563 95.585938 37.046875 41.652343 110.96875-70.199219 192.0625 125.265626v-67.105469zm0 0" fill="#f0bc5e"/><path d="m464 171.433594-16-10.433594v200.535156h-201.753906l-3.453125-13.824218c-2.671875-10.695313-12.257813-18.175782-23.289063-18.175782h-43.503906v-32h40c13.230469 0 24-10.765625 24-24 0-13.230468-10.769531-24-24-24h-40v-8c0-6.101562-1.59375-12.0625-4.328125-17.542968 9.671875-5.542969 17.960937-13.230469 24.152344-22.457032h212.175781v-64h-204.199219c-9.914062-27.917968-36.519531-48-67.800781-48-39.703125 0-72 32.304688-72 72 0 26.722656 14.664062 50.03125 36.328125 62.457032-2.734375 5.480468-4.328125 11.441406-4.328125 17.542968v40.410156c-53.609375 4.109376-96 48.941407-96 103.589844 0 57.34375 46.65625 104 104 104 44.257812 0 82.046875-27.839844 97.03125-66.886718l11.800781 47.207031c2.894531 11.59375 13.257813 19.679687 25.199219 19.679687 1.898438 0 3.792969-.207031 5.625-.625l58.917969-13.085937c10.257812-2.28125 17.425781-11.207031 17.425781-21.71875v-14.328125c0-12.257813-9.984375-22.242188-22.246094-22.242188-1.808594 0-3.609375.226563-5.394531.664063l-29.34375 7.335937h-.769531l-12-48h213.753906zm-72-17.898438v32h-188.199219c2.671875-7.519531 4.199219-15.574218 4.199219-24 0-2.703125-.175781-5.367187-.472656-8zm-312 8c0-30.878906 25.128906-56 56-56s56 25.121094 56 56-25.128906 56-56 56-56-25.121094-56-56zm56 232h23.359375c-3.902344 27.097656-27.207031 48-55.359375 48-30.871094 0-56-25.121094-56-56 0-28.152344 20.910156-51.457031 48-55.359375v23.359375c0 22.058594 17.945312 40 40 40zm-32 80c-48.519531 0-88-39.480468-88-88 0-45.824218 35.214844-83.535156 80-87.589844v16.0625c-35.945312 4-64 34.535157-64 71.527344 0 39.695313 32.296875 72 72 72 37 0 67.535156-28.054687 71.527344-64h16.066406c-4.058594 44.785156-41.769531 80-87.59375 80zm160-32 32.222656-7.808594c3.96875-1.007812 7.777344 2.105469 7.777344 6.058594v14.328125c0 2.949219-2.015625 5.460938-4.886719 6.101563l-58.9375 13.089844c-5.128906 1.167968-10.527343-2.167969-11.816406-7.3125l-19.085937-76.335938c-.296876-1.199219-.769532-2.3125-1.3125-3.367188.007812-.257812.039062-.503906.039062-.753906h-.441406c-2.796875-4.847656-7.972656-8-13.804688-8h-57.753906c-13.230469 0-24-10.765625-24-24v-112c0-4.542968 1.320312-8.207031 2.953125-11.160156 6.65625 2.050781 13.726563 3.160156 21.046875 3.160156s14.390625-1.109375 21.046875-3.160156c1.632813 2.953125 2.953125 6.617188 2.953125 11.160156v24h56c4.414062 0 8 3.59375 8 8 0 4.410156-3.585938 8-8 8h-56v48c0 8.824219 7.175781 16 16 16h43.503906c3.679688 0 6.863282 2.496094 7.769532 6.066406l22.480468 89.933594zm0 0"/></svg>