<svg height="496pt" viewBox="0 0 496 496" width="496pt" xmlns="http://www.w3.org/2000/svg"><path d="m48 72h400v40h-400zm0 0" fill="#F5A623"/><path d="m96 352c0 17.648438 14.351562 32 32 32s32-14.351562 32-32-14.351562-32-32-32-32 14.351562-32 32zm48 0c0 8.824219-7.175781 16-16 16s-16-7.175781-16-16 7.175781-16 16-16 16 7.175781 16 16zm0 0"/><path d="m472 24c0-13.230469-10.769531-24-24-24h-400c-13.230469 0-24 10.769531-24 24v56h16v222.609375l-40 29.335937v59.734376l32-23.207032v127.527344h192v-65.039062h-16v49.039062h-32v-80h-96v80h-32v-123.128906l80.0625-58.0625 51.328125 36.207031 9.21875-13.070313-60.671875-42.816406-111.9375 81.191406v-20.265624l112-82.132813 71.246094 52.246094 9.472656-12.902344-80.71875-59.1875-72 52.800781v-210.878906h384v153.039062h16v-153.039062h16zm-376 392h64v64h-64zm360-352h-416v-40c0-4.40625 3.585938-8 8-8h400c4.414062 0 8 3.59375 8 8zm0 0"/><path d="m168 224v-96h-96v96zm-80-80h64v64h-64zm0 0"/><path d="m241.039062 224h-41.039062v-96h96v80.847656h-16v-64.847656h-64v64h25.039062zm0 0"/><path d="m424 216.902344h-16v-72.902344h-64v40h-16v-56h96zm0 0"/><path d="m475.191406 299.433594c-3.304687-12.585938-8.3125-24.640625-14.933594-35.953125l9.957032-19.527344-42.167969-42.167969-19.527344 9.957032c-11.3125-6.621094-23.367187-11.628907-35.953125-14.933594l-6.75-20.808594h-59.625l-6.757812 20.808594c-12.585938 3.304687-24.640625 8.3125-35.953125 14.933594l-19.527344-9.957032-42.167969 42.167969 9.957032 19.527344c-6.621094 11.3125-11.628907 23.367187-14.933594 35.953125l-20.808594 6.75v59.625l20.808594 6.757812c3.304687 12.585938 8.3125 24.640625 14.933594 35.953125l-9.957032 19.527344 42.167969 42.167969 19.527344-9.957032c11.3125 6.621094 23.367187 11.628907 35.953125 14.933594l6.75 20.808594h59.625l6.757812-20.808594c12.585938-3.304687 24.640625-8.3125 35.953125-14.933594l19.527344 9.957032 42.167969-42.167969-9.957032-19.527344c6.621094-11.3125 11.628907-23.367187 14.933594-35.953125l20.808594-6.75v-59.625zm-139.191406 140.566406c-57.441406 0-104-46.558594-104-104s46.558594-104 104-104 104 46.558594 104 104-46.558594 104-104 104zm0 0" fill="#F5A623"/><path d="m336 224c-61.761719 0-112 50.238281-112 112s50.238281 112 112 112 112-50.238281 112-112-50.238281-112-112-112zm-15.832031 206.585938-.183594-65.027344-4.617187-2.144532c-16.625-7.726562-27.367188-24.238281-27.367188-42.078124 0-13.34375 6.007812-25.953126 16-34.6875v29.632812l32 21.335938 32-21.335938v-29.632812c9.992188 8.734374 16 21.34375 16 34.6875 0 17.839843-10.742188 34.351562-27.367188 42.078124l-4.617187 2.144532-.183594 65.027344c-5.160156.855468-10.433593 1.414062-15.832031 1.414062s-10.671875-.558594-15.832031-1.414062zm47.671875-4.128907.144531-50.914062c19.601563-11.117188 32.015625-31.878907 32.015625-54.207031 0-24.039063-14.375-46.257813-36.632812-56.59375l-11.367188-5.277344v48.253906l-16 10.664062-16-10.664062v-48.253906l-11.367188 5.277344c-22.257812 10.335937-36.632812 32.554687-36.632812 56.59375 0 22.335937 12.414062 43.089843 32.015625 54.207031l.144531 50.914062c-37.3125-13.175781-64.160156-48.695312-64.160156-90.457031 0-52.9375 43.0625-96 96-96s96 43.0625 96 96c0 41.761719-26.847656 77.28125-64.160156 90.457031zm0 0"/></svg>