<svg height="496pt" viewBox="0 0 496 496" width="496pt" xmlns="http://www.w3.org/2000/svg"><path d="m384 96c-31.496094 0-59.808594-17.503906-73.886719-45.664062l-25.167969-50.335938h-185.890624l-25.167969 50.335938c-14.078125 28.160156-42.390625 45.664062-73.886719 45.664062v16h32v232h296.695312v-16h-280.695312v-216h72v-16h-65.976562c14.296874-9.359375 26.167968-22.488281 34.175781-38.503906l20.746093-41.496094h166.109376l20.746093 41.496094c8.015625 16.023437 19.878907 29.152344 34.175781 38.503906h-65.976562v16h72v196.265625h16v-196.265625h32zm0 0"/><path d="m196.457031 32c-14.96875 0-29.464843 4.390625-41.90625 12.6875l-5.878906 3.921875c-21.671875 6.070313-36.671875 25.757813-36.671875 48.375v55.015625h8c0-13.257812 10.742188-24 24-24h96c13.257812 0 24 10.742188 24 24h8v-44.457031c0-41.65625-33.886719-75.542969-75.542969-75.542969zm0 0" fill="#f0bc5e"/><path d="m280.246094 232.238281-48.246094-21.429687v-11.6875c4.367188-4.464844 7.960938-9.664063 10.648438-15.386719 16.390624-1.375 29.351562-14.992187 29.351562-31.734375 0-17.648438-14.351562-32-32-32h-96c-17.648438 0-32 14.359375-32 32.007812 0 16.734376 12.960938 30.351563 29.351562 31.726563 2.6875 5.714844 6.28125 10.921875 10.648438 15.386719v11.6875l-48.246094 21.4375c-14.433594 6.410156-23.753906 20.753906-23.753906 36.554687v43.199219h224v-43.199219c0-15.800781-9.320312-30.144531-23.753906-36.5625zm-43.671875-1.894531-15.917969 37.152344-17.25-12.9375 22.992188-28.734375zm-44.574219 12.839844-24-30v-2.671875c7.289062 3.480469 15.40625 5.488281 24 5.488281s16.710938-2.007812 24-5.480469v2.671875zm0-43.183594c-22.054688 0-40-17.945312-40-40v-24h80v24c0 22.054688-17.945312 40-40 40zm64-48c0 6.023438-3.390625 11.222656-8.328125 13.953125.207031-1.960937.328125-3.945313.328125-5.953125v-21.777344c4.761719 2.777344 8 7.882813 8 13.777344zm-128 .007812c0-5.894531 3.238281-11 8-13.785156v21.777344c0 2.015625.121094 4 .328125 5.953125-4.9375-2.722656-8.328125-7.914063-8.328125-13.945313zm29.601562 73.808594 22.992188 28.734375-17.25 12.9375-15.917969-37.152343zm130.398438 70.183594h-192v-27.199219c0-9.480469 5.59375-18.089843 14.246094-21.929687l22.554687-10.023438 23.855469 55.664063 35.34375-26.511719 35.34375 26.503906 23.855469-55.664062 22.554687 10.023437c8.652344 3.847657 14.246094 12.457031 14.246094 21.9375zm0 0"/><path d="m376 496c-30.871094 0-56-25.128906-56-56 0-5.433594.808594-10.824219 2.359375-16h-74.359375v24h-48v-24h-16v24h-48v-24h-26.425781l-29.574219-19.71875v-24.5625l29.574219-19.71875h212.785156c-1.550781-5.175781-2.359375-10.566406-2.359375-16 0-30.871094 25.128906-56 56-56 28.390625 0 51.910156 21.230469 55.519531 48.664062 2.816407-.449218 5.648438-.664062 8.480469-.664062 30.871094 0 56 25.128906 56 56s-25.128906 56-56 56c-2.832031 0-5.664062-.214844-8.480469-.664062-3.609375 27.433593-27.128906 48.664062-55.519531 48.664062zm0 0" fill="#f0bc5e"/></svg>