<svg height="496pt" viewBox="0 0 496 496" width="496pt" xmlns="http://www.w3.org/2000/svg"><path d="m248 216h-1.609375c-4.621094 22.769531-18.910156 42.015625-38.390625 53.289062v26.710938l53 17.664062.03125.160157c11.066406-21.808594 28.503906-39.824219 49.976562-51.441407l-2.726562-2.015624c-12.707031-9.359376-20.28125-24.367188-20.28125-40.144532v-123.4375c0-26.441406-18.128906-49.503906-43.503906-55.96875-21.113282-25.953125-52.335938-40.816406-85.839844-40.816406-61.015625 0-110.65625 49.640625-110.65625 110.65625v109.566406c0 19.015625-10.566406 36.113282-27.574219 44.617188l-5.746093 2.863281 1.558593 6.226563c.347657 1.398437 8.699219 31.125 66.992188 36.980468l44.769531-14.910156v-26.542969c-20.878906-11.6875-35.792969-31.777343-39.199219-53.457031h-.800781c-17.671875 0-32-14.328125-32-32s14.328125-32 32-32v-8c20.488281 0 40.136719-8.136719 54.625-22.625l1.375-1.375v24c20.488281 0 40.136719-8.136719 54.625-22.625l1.375-1.375v24h6.703125c15.105469 0 28.519531-9.664062 33.296875-24h8v32c17.671875 0 32 14.328125 32 32s-14.328125 32-32 32zm0 0" fill="#f0bc5e"/><path d="m207.160156 363.574219-39.160156-27.574219-39.160156 27.574219 15.160156 28.425781-7.9375 63.007812h63.875l-7.9375-63.007812zm0 0" fill="#f0bc5e"/><path d="m136 168c0 4.417969-3.582031 8-8 8s-8-3.582031-8-8 3.582031-8 8-8 8 3.582031 8 8zm0 0"/><path d="m216 168c0 4.417969-3.582031 8-8 8s-8-3.582031-8-8 3.582031-8 8-8 8 3.582031 8 8zm0 0"/><path d="m200 216h-16c0 8.824219-7.175781 16-16 16s-16-7.175781-16-16h-16c0 17.648438 14.351562 32 32 32s32-14.351562 32-32zm0 0"/><path d="m368 240c-47.257812 0-88.511719 25.808594-110.6875 64.007812l-41.3125-13.777343v-16.574219c17.679688-11.558594 30.910156-29.304688 36.710938-50.136719 19.816406-2.359375 35.289062-19.078125 35.289062-39.519531 0-19.3125-13.769531-35.472656-32-39.191406v-32.808594h-21.769531l-1.824219 5.472656c-3.558594 10.671875-13.269531 17.96875-24.414062 18.496094v-35.28125l-15.03125 15.03125c-11.167969 11.167969-25.503907 18.066406-40.96875 19.832031v-34.855469l-15.03125 15.03125c-13.074219 13.074219-30.464844 20.273438-48.960938 20.273438h-8v8.808594c-18.230469 3.71875-32 19.878906-32 39.191406 0 20.023438 14.839844 36.511719 34.070312 39.398438 5.082032 20.570312 19.160157 38.753906 37.929688 50.546874v16.285157l-81.710938 27.25c-22.898437 7.625-38.289062 28.976562-38.289062 53.113281v93.40625h283.625c22.550781 19.847656 52.039062 32 84.375 32 70.574219 0 128-57.425781 128-128s-57.425781-128-128-128zm-304-56c0-10.414062 6.703125-19.207031 15.992188-22.519531l-.015626 45.039062c-9.28125-3.320312-15.976562-12.113281-15.976562-22.519531zm173.863281 130.382812-24.503906 49.007813-33.503906-27.925781 30.3125-30.3125zm34.136719-130.382812c0 10.535156-6.871094 19.414062-16.335938 22.632812.167969-2.199218.335938-4.394531.335938-6.632812v-38.527344c9.289062 3.3125 16 12.113282 16 22.527344zm-176.023438 22.671875.023438-55.039063c14.449219-1.335937 28.136719-6.28125 40-14.402343v14.769531h8c17.375 0 33.960938-5.167969 48-14.769531v14.769531h14.703125c13.175781 0 25.28125-5.960938 33.296875-15.71875v63.71875c0 39.703125-32.296875 72-72 72-38.34375 0-72-30.527344-72.023438-65.328125zm72.023438 81.328125c11.296875 0 22.0625-2.214844 32-6.113281v10.800781l-32 32-32-32v-10.765625c10.03125 3.871094 20.839844 6.078125 32 6.078125zm-42.160156 17.152344 30.3125 30.3125-33.503906 27.925781-24.503907-49.007813zm-109.839844 65.441406c0-17.242188 10.992188-32.496094 27.351562-37.945312l39.457032-13.152344 34.550781 69.113281 50.640625-42.195313 50.640625 42.195313 24.792969-49.585937c-2.167969 9.328124-3.433594 19-3.433594 28.976562 0 30.265625 10.617188 58.0625 28.238281 80h-252.238281zm352 109.40625c-61.761719 0-112-50.238281-112-112s50.238281-112 112-112 112 50.238281 112 112-50.238281 112-112 112zm0 0"/><path d="m360 288h-16c-22.054688 0-40 17.945312-40 40v80c0 22.054688 17.945312 40 40 40h16c13.230469 0 24-10.769531 24-24v-16c0-13.230469-10.769531-24-24-24-4.414062 0-8-3.585938-8-8v-16c0-4.414062 3.585938-8 8-8 13.230469 0 24-10.769531 24-24v-16c0-13.230469-10.769531-24-24-24zm8 40c0 4.414062-3.585938 8-8 8-13.230469 0-24 10.769531-24 24v16c0 13.230469 10.769531 24 24 24 4.414062 0 8 3.585938 8 8v16c0 4.414062-3.585938 8-8 8h-16c-13.230469 0-24-10.769531-24-24v-80c0-13.230469 10.769531-24 24-24h16c4.414062 0 8 3.585938 8 8zm0 0"/><path d="m400 312h16v16h-16zm0 0"/><path d="m432 312h16v16h-16zm0 0"/></svg>