<svg height="496pt" viewBox="0 -2 496 495" width="496pt" xmlns="http://www.w3.org/2000/svg"><path d="m485.816406 126.820312-165.816406-126.320312-165.816406 126.328125c-4.398438 3.351563-7.542969 7.910156-9.113282 13.191406l15.34375 4.542969-.414062 17.992188h24l4.910156 8.097656 131.089844-101.960938 134.246094 104.417969c4.53125 3.511719 10.160156 5.445313 15.890625 5.445313 14.261719 0 25.863281-11.597657 25.863281-25.863282v-5.28125c0-8.023437-3.816406-15.71875-10.183594-20.589844zm0 0" fill="#F5A623"/><path d="m144 362.554688h-80v-80h80zm0 0" fill="#F5A623"/><path d="m272 322.554688h176v-154.3125l-16-12.445313v150.757813h-64v-96h-96v96h-16v-112c0-13.230469-10.769531-24-24-24h-40v-16h-24.808594c-3.71875-18.230469-19.871094-32-39.191406-32s-35.480469 13.769531-39.191406 32h-24.808594v16h-40c-13.230469 0-24 10.769531-24 24v272c0 13.234374 10.769531 24 24 24h208c13.230469 0 24-10.765626 24-24v-40.175782l112 .175782c17.648438 0 32-14.351563 32-32 0-17.648438-14.351562-32-32-32h-112v-40zm16-96h64v80h-64zm-104 184v-32h136v32zm-16-2.605469-38.121094-10.898438c-1.101562-.3125-1.878906-1.335937-1.878906-2.496093 0-1.160157.777344-2.183594 1.886719-2.496094l38.113281-10.894532zm40-45.394531h-32l-50.496094 14.113281c-7.953125 2.265625-13.503906 9.625-13.503906 17.886719 0 8.265624 5.550781 15.625 13.503906 17.890624l48.304688 13.808594 34.191406.054688v16.246094h-160v-224h16v16h128v-16h16zm-128-192h24v-8c0-13.230469 10.769531-24 24-24s24 10.769531 24 24v8h24v48h-96zm160 296c0 4.417968-3.585938 8-8 8h-208c-4.414062 0-8-3.582032-8-8v-272c0-4.414063 3.585938-8 8-8h40v16h-32v256h192v-32.222657l16 .023438zm144-72c0 8.824218-7.175781 16-16 16h-32v-32h32c8.824219 0 16 7.175781 16 16zm-160-32v-160h-32v-16h40c4.414062 0 8 3.585937 8 8v168zm0 0"/><path d="m376 130.554688h-48v48h48zm-16 32h-16v-16h16zm0 0"/><path d="m312 130.554688h-48v48h48zm-16 32h-16v-16h16zm0 0"/><path d="m96 186.554688h16v16h-16zm0 0"/><path d="m144 186.554688h16v16h-16zm0 0"/><path d="m104 319.242188-10.34375-10.34375-11.3125 11.3125 21.65625 21.65625 77.65625-77.65625-11.3125-11.3125zm0 0"/></svg>