<svg id="_x33_0" enable-background="new 0 0 64 64" height="512" viewBox="0 0 64 64" width="512" xmlns="http://www.w3.org/2000/svg"><g><g><path d="m45 49c-1.654 0-3 1.346-3 3 0 .781.307 1.486.797 2.02.068-.006.134-.02.203-.02h4.22c.48-.532.78-1.229.78-2 0-1.654-1.346-3-3-3z" fill="#F5A623"/></g><g><g><path d="m47 45h-10v-1c0-2.757 2.243-5 5-5s5 2.243 5 5z" fill="#F5A623"/></g></g><g><g><path d="m52 39c-1.654 0-3-1.346-3-3s1.346-3 3-3 3 1.346 3 3-1.346 3-3 3z" fill="#F5A623"/></g></g><g><g><path d="m9 19c-4.411 0-8-3.589-8-8s3.589-8 8-8 8 3.589 8 8-3.589 8-8 8z" fill="#F5A623"/></g></g><g><g><path d="m14 39c-3.86 0-7-3.14-7-7s3.14-7 7-7 7 3.14 7 7-3.14 7-7 7z" fill="#F5A623"/></g></g><g><g><path d="m44 25c-3.86 0-7-3.14-7-7s3.14-7 7-7 7 3.14 7 7-3.14 7-7 7z" fill="#F5A623"/></g></g><g><path d="m18 47.954c0 .99.492 1.909 1.315 2.458l1.26.84c.266.177.425.474.425.794 0 .526-.428.954-.954.954h-4.046v2h4.046c1.629 0 2.954-1.325 2.954-2.954 0-.99-.492-1.909-1.315-2.458l-1.26-.84c-.266-.177-.425-.474-.425-.794 0-.526.428-.954.954-.954h3.046v-2h-3.046c-1.629 0-2.954 1.325-2.954 2.954z"/><path d="m30 48.395v-.395h-2v.395c0 2.593 1.288 4.999 3.445 6.438l1.109-1.664c-1.599-1.067-2.554-2.852-2.554-4.774z"/><path d="m60 49h-6c-.551 0-1-.449-1-1s.449-1 1-1h2c1.654 0 3-1.346 3-3s-1.346-3-3-3h-10.026c.442.584.773 1.257.924 2h9.102c.551 0 1 .449 1 1s-.449 1-1 1h-2c-1.654 0-3 1.346-3 3s1.346 3 3 3h6c.551 0 1 .449 1 1s-.449 1-1 1h-17c-1.654 0-3 1.346-3 3s1.346 3 3 3h3c.551 0 1 .449 1 1s-.449 1-1 1h-27c-1.103 0-2-.897-2-2h14.757c2.891 0 5.243-2.352 5.243-5.243 0-1.4-.545-2.717-1.536-3.707l-.122-.122c-.853-.853-1.342-2.034-1.342-3.24 0-.374.046-.749.137-1.112l.644-2.576h2.32c.152-.743.482-1.416.924-2h-3.025v-1c0-1.627-.793-3.061-2-3.974v-32.026c0-1.654-1.346-3-3-3s-3 1.346-3 3v32.026c-1.207.914-2 2.348-2 3.974v1h-9.464c-2.501 0-4.536 2.035-4.536 4.536 0 1.211.472 2.351 1.329 3.207l.474.474c.127.127.197.296.197.476 0 .31-.209.579-.51.653l-4.605 1.151c-1.699.426-2.885 1.945-2.885 3.695 0 2.1 1.708 3.808 3.808 3.808h6.192c0 2.206 1.794 4 4 4h27c1.654 0 3-1.346 3-3s-1.346-3-3-3h-3c-.551 0-1-.449-1-1s.449-1 1-1h17c1.654 0 3-1.346 3-3s-1.346-3-3-3zm-31-45c0-.551.449-1 1-1s1 .449 1 1v31.101c-.323-.066-.658-.101-1-.101s-.677.035-1 .101zm-2 36c0-1.654 1.346-3 3-3s3 1.346 3 3v1h-6zm-18.192 17c-.997 0-1.808-.811-1.808-1.808 0-.831.563-1.552 1.37-1.754l4.605-1.151c1.192-.298 2.025-1.364 2.025-2.594 0-.714-.278-1.386-.783-1.891l-.474-.474c-.479-.478-.743-1.115-.743-1.792 0-1.398 1.138-2.536 2.536-2.536h17.183l-.522 2.091c-.131.523-.197 1.06-.197 1.597 0 1.758.685 3.412 1.928 4.655l.122.122c.612.613.95 1.427.95 2.293 0 1.787-1.455 3.242-3.243 3.242z"/><path d="m11 11h2c0-2.206-1.794-4-4-4v2c1.103 0 2 .897 2 2z"/><path d="m11 32h2c0-.551.449-1 1-1v-2c-1.654 0-3 1.346-3 3z"/><path d="m44 17v-2c-1.654 0-3 1.346-3 3h2c0-.551.449-1 1-1z"/></g><g><g><path d="m22 21c-1.654 0-3-1.346-3-3s1.346-3 3-3 3 1.346 3 3-1.346 3-3 3z" fill="#F5A623"/></g></g></g></svg>