<svg id="Layer_5" enable-background="new 0 0 64 64" height="512" viewBox="0 0 64 64" width="512" xmlns="http://www.w3.org/2000/svg"><g><g><g><path d="m29 59h-12c-1.103 0-2-.897-2-2v-14c0-1.103.897-2 2-2h12c1.103 0 2 .897 2 2v14c0 1.103-.897 2-2 2z" fill="#F5A623"/></g></g><g><g><path d="m47 59h-12c-1.103 0-2-.897-2-2v-14c0-1.103.897-2 2-2h12c1.103 0 2 .897 2 2v14c0 1.103-.897 2-2 2z" fill="#F5A623"/></g></g><g><path d="m4 13c-1.654 0-3 1.346-3 3s1.346 3 3 3h7c0 1.103.897 2 2 2h2c1.103 0 2-.897 2-2h6c3.35 0 6.221-2.072 7.411-5h6.589v-2h16.5c4.136 0 7.5 3.364 7.5 7.5s-3.364 7.5-7.5 7.5h-10.5v-2h-2v4h12.5c5.238 0 9.5-4.262 9.5-9.5s-4.262-9.5-9.5-9.5h-16.5v-2h-6.589c-1.19-2.928-4.061-5-7.411-5h-6c0-1.103-.897-2-2-2h-2c-1.103 0-2 .897-2 2h-7c-1.654 0-3 1.346-3 3s1.346 3 3 3h7v4zm31-3v2h-4.069c.041-.328.069-.661.069-1s-.028-.672-.069-1zm-12-5c3.309 0 6 2.691 6 6s-2.691 6-6 6h-6v-12zm-10-2h2l.001 16h-2.001zm-9 14c-.552 0-1-.449-1-1s.448-1 1-1h7v2zm0-10c-.552 0-1-.449-1-1s.448-1 1-1h7v2z"/><path d="m60 37h-46c-1.302 0-2.402.839-2.816 2h-1.184c-1.654 0-3 1.346-3 3v1h-1c-1.654 0-3-1.346-3-3v-8c0-1.654 1.346-3 3-3h19v2h2v-4h-21c-2.757 0-5 2.243-5 5v8c0 2.757 2.243 5 5 5h1v1c0 1.654 1.346 3 3 3h1v11c0 1.654 1.346 3 3 3h39.465c2.547 0 4.941-.992 6.742-2.793s2.793-4.195 2.793-6.742v-13.465c0-1.654-1.346-3-3-3zm-50 10c-.552 0-1-.448-1-1v-4c0-.552.448-1 1-1h1v6zm51 6.465c0 2.013-.784 3.904-2.207 5.328-1.424 1.423-3.315 2.207-5.328 2.207h-39.465c-.552 0-1-.448-1-1v-20c0-.552.448-1 1-1h46c.552 0 1 .448 1 1z"/><path d="m19 45h2v4h-2z"/><path d="m25 45h2v4h-2z"/><path d="m22 51h2v4h-2z"/><path d="m37 45h2v4h-2z"/><path d="m43 45h2v4h-2z"/><path d="m40 51h2v4h-2z"/><path d="m51 45.162.946 2.838-.946 2.838v4.162h8v-4.162l-.946-2.838.946-2.838v-4.162h-8zm2-2.162h4v1.838l-.72 2.162h-2.56l-.72-2.162zm0 8.162.72-2.162h2.559l.721 2.162v1.838h-4z"/><path d="m29 25h2v6h-2z"/><path d="m33 25h2v6h-2z"/><path d="m37 25h2v6h-2z"/></g></g></svg>