<svg id="Layer_35" enable-background="new 0 0 64 64" height="512" viewBox="0 0 64 64" width="512" xmlns="http://www.w3.org/2000/svg"><path d="m44.871 5.126c-2.662-2.661-6.201-4.126-9.965-4.126h-.147c-1.967 0-3.87.389-5.656 1.155l-1.729.741c-1.709.732-3.519 1.104-5.455 1.104-1.81 0-3.575-.339-5.247-1.008l-3.672-1.469v1.477c0 2.782.699 5.44 2 7.776v18.224h1.141c-.083-.321-.141-.653-.141-1 0-2.209 1.791-4 4-4l.01-8.991c2.505 1.878 5.618 2.991 8.99 2.991h9c3.314 0 6 2.686 6 6 2.209 0 4 1.791 4 4 0 .347-.058.679-.141 1h1.141l.001-13.911c.001-3.763-1.466-7.301-4.13-9.963z" fill="#F5A623"/><path d="m35.28 56.36-1.967-7.211-1.313-1.149-1.32 1.173-1.96 7.187 3.28 1.64z" fill="#F5A623"/><circle cx="26" cy="23" r="1"/><circle cx="38" cy="23" r="1"/><path d="m36 32h-2c0 1.103-.897 2-2 2s-2-.897-2-2h-2c0 2.206 1.794 4 4 4s4-1.794 4-4z"/><path d="m42.003 13.417 1.818-.834c-2.115-4.607-6.755-7.583-11.821-7.583v2c4.287 0 8.214 2.519 10.003 6.417z"/><path d="m49.123 47.289-10.259-4.198c-1.133-.463-1.864-1.553-1.864-2.777v-.718c2.469-1.706 4.474-3.972 5.857-6.596h1.143c2.757 0 5-2.243 5-5 0-2.437-1.755-4.466-4.065-4.906-.447-3.432-3.383-6.094-6.935-6.094h-9c-3.053 0-5.954-.965-8.391-2.792l-1.598-1.198-.01 10.09c-2.28.465-4.001 2.485-4.001 4.9 0 2.757 2.243 5 5 5h1.143c1.383 2.624 3.388 4.89 5.857 6.596v.718c0 1.224-.731 2.313-1.864 2.777l-10.259 4.197c-6 2.455-9.877 8.229-9.877 14.712v1h54v-1c0-6.483-3.877-12.257-9.877-14.711zm-32.123 1.292 6-2.455v4.166c0 2.668 1.482 5.067 3.869 6.261l5.131 2.565 5.131-2.565c2.387-1.194 3.869-3.593 3.869-6.261v-4.166l6 2.455v12.419h-30zm15.005.752 5.341 4.673c-.33.295-.7.552-1.11.757l-4.236 2.119-4.236-2.118c-.391-.195-.742-.44-1.06-.718zm6.101-4.391.894.365v4.984c0 .743-.165 1.455-.463 2.1l-5.074-4.441 3.602-3.603c.32.234.663.44 1.041.595zm8.894-16.942c0 1.654-1.346 3-3 3h-.241c.703-1.833 1.119-3.794 1.208-5.826 1.179.405 2.033 1.512 2.033 2.826zm-27 3c-1.654 0-3-1.346-3-3 0-1.311.851-2.417 2.033-2.824.09 2.031.505 3.991 1.208 5.824zm1-6.648.008-7.486c2.42 1.401 5.148 2.134 7.992 2.134h9c2.757 0 5 2.243 5 5v.351c0 7.023-4.406 13.247-11 15.591-6.594-2.344-11-8.568-11-15.59zm10.684 17.597.316.105.316-.105c.947-.316 1.855-.702 2.719-1.153.072.748.306 1.452.678 2.076l-3.713 3.714-3.714-3.714c.372-.624.606-1.328.678-2.076.864.45 1.773.837 2.72 1.153zm-5.79 2.993c.378-.155.721-.361 1.041-.593l3.608 3.608-5.051 4.49c-.315-.66-.492-1.39-.492-2.155v-4.984zm-10.894 4.483v11.575h-7.965c.357-5.025 3.386-9.433 7.965-11.575zm34 11.575v-11.574c4.579 2.141 7.608 6.55 7.965 11.574z"/></svg>