<?xml version="1.0" encoding="iso-8859-1"?>
<!-- Generator: Adobe Illustrator 19.0.0, SVG Export Plug-In . SVG Version: 6.00 Build 0)  -->
<svg version="1.1" id="Capa_1" xmlns="http://www.w3.org/2000/svg" xmlns:xlink="http://www.w3.org/1999/xlink" x="0px" y="0px"
	 viewBox="0 0 496 496" style="enable-background:new 0 0 496 496;" xml:space="preserve">
<path style="fill:#E56565;" d="M144,320c-30.88,0-56-25.128-56-56v-96h16v96c0,22.056,17.944,40,40,40s40-17.944,40-40v-96h16v96
	C200,294.872,174.88,320,144,320z"/>
<path style="fill:#FFCB57;" d="M472,8H264c-8.84,0-16,7.16-16,16v120v24l0,0c17.672,0,32,14.328,32,32v128h192c8.84,0,16-7.16,16-16
	V24C488,15.16,480.84,8,472,8z"/>
<g>
	<path style="fill:#3F3A34;" d="M336,456c0,13.232-10.768,24-24,24s-24-10.768-24-24V200c0-22.056-17.944-40-40-40H40
		c-22.056,0-40,17.944-40,40v256c0,22.056,17.944,40,40,40h272c22.056,0,40-17.944,40-40V352h-16V456z M40,480
		c-13.232,0-24-10.768-24-24V200c0-13.232,10.768-24,24-24h208c13.232,0,24,10.768,24,24v256c0,9,2.992,17.312,8.016,24H40z"/>
	<rect x="304" y="352" style="fill:#3F3A34;" width="16" height="112"/>
	<path style="fill:#3F3A34;" d="M472,0H264c-13.232,0-24,10.768-24,24v120h16V24c0-4.416,3.592-8,8-8h8v128h16V16h32v304h-16v16h168
		c13.232,0,24-10.768,24-24V24C496,10.768,485.232,0,472,0z M480,312c0,4.416-3.592,8-8,8H336V16h136c4.408,0,8,3.584,8,8V312z"/>
	<path style="fill:#3F3A34;" d="M424,32c-22.056,0-40,17.944-40,40c0,5.696,1.232,11.088,3.392,16
		c-2.16,4.912-3.392,10.304-3.392,16c0,22.056,17.944,40,40,40s40-17.944,40-40c0-5.696-1.232-11.088-3.392-16
		c2.16-4.912,3.392-10.304,3.392-16C464,49.944,446.056,32,424,32z M424,48c13.232,0,24,10.768,24,24
		c0,0.064-0.016,0.128-0.016,0.192C441.28,67.12,433.032,64,424,64s-17.28,3.12-23.984,8.192c0-0.064-0.016-0.128-0.016-0.192
		C400,58.768,410.768,48,424,48z M441.76,88c-4.392,4.872-10.696,8-17.76,8s-13.36-3.128-17.76-8c4.392-4.872,10.696-8,17.76-8
		S437.36,83.128,441.76,88z M424,128c-13.232,0-24-10.768-24-24c0-0.064,0.016-0.128,0.016-0.192C406.72,108.88,414.968,112,424,112
		s17.28-3.12,23.984-8.192c0,0.064,0.016,0.128,0.016,0.192C448,117.232,437.232,128,424,128z"/>
	<path style="fill:#3F3A34;" d="M144,240c-13.232,0-24,10.768-24,24s10.768,24,24,24s24-10.768,24-24S157.232,240,144,240z M144,272
		c-4.408,0-8-3.584-8-8s3.592-8,8-8s8,3.584,8,8S148.408,272,144,272z"/>
	<rect x="136" y="32" style="fill:#3F3A34;" width="16" height="56"/>
	<rect x="136" style="fill:#3F3A34;" width="16" height="16"/>
	<rect x="408" y="408" style="fill:#3F3A34;" width="16" height="56"/>
	<rect x="408" y="480" style="fill:#3F3A34;" width="16" height="16"/>
</g>
<g>
	<path style="fill:#E56565;" d="M144,144c-17.648,0-32-14.352-32-32s14.352-32,32-32s32,14.352,32,32S161.648,144,144,144z M144,96
		c-8.824,0-16,7.176-16,16s7.176,16,16,16s16-7.176,16-16S152.824,96,144,96z"/>
	<path style="fill:#E56565;" d="M416,416c-17.648,0-32-14.352-32-32s14.352-32,32-32s32,14.352,32,32S433.648,416,416,416z M416,368
		c-8.824,0-16,7.176-16,16s7.176,16,16,16s16-7.176,16-16S424.824,368,416,368z"/>
</g>
<g>
</g>
<g>
</g>
<g>
</g>
<g>
</g>
<g>
</g>
<g>
</g>
<g>
</g>
<g>
</g>
<g>
</g>
<g>
</g>
<g>
</g>
<g>
</g>
<g>
</g>
<g>
</g>
<g>
</g>
</svg>
