<?xml version="1.0" encoding="iso-8859-1"?>
<!-- Generator: Adobe Illustrator 19.0.0, SVG Export Plug-In . SVG Version: 6.00 Build 0)  -->
<svg version="1.1" id="Capa_1" xmlns="http://www.w3.org/2000/svg" xmlns:xlink="http://www.w3.org/1999/xlink" x="0px" y="0px"
	 viewBox="0 0 512 512" style="enable-background:new 0 0 512 512;" xml:space="preserve">
<path style="fill:#E1EFFB;" d="M297.426,7.287H42.098c-4.334,0-7.848,3.514-7.848,7.848v481.731c0,4.334,3.514,7.848,7.848,7.848
	h363.83c4.334,0,7.848-3.514,7.848-7.848v-373.23L297.426,7.287z"/>
<path style="fill:#CCDFED;" d="M326.465,36.326v106.468c0,4.479,3.631,8.11,8.11,8.11h34.903v345.962
	c0,4.334-3.514,7.848-7.848,7.848h44.298c4.334,0,7.848-3.514,7.848-7.848V150.904v-27.268l0,0L326.465,36.326z"/>
<path style="fill:#FF4C4C;" d="M137.33,83.561l-37.296,35.036c-0.958,0.9-1.501,2.155-1.501,3.469v50.966
	c0,2.629,2.131,4.76,4.76,4.76h74.592c2.629,0,4.76-2.131,4.76-4.76v-50.966c0-1.314-0.543-2.569-1.501-3.469l-37.296-35.036
	C142.016,81.84,139.162,81.84,137.33,83.561z"/>
<path style="fill:#F33939;" d="M177.885,177.791c2.629,0,4.76-2.131,4.76-4.76v-50.966c0-1.314-0.543-2.569-1.501-3.469
	L143.848,83.56c-0.916-0.86-2.088-1.291-3.259-1.291v95.521L177.885,177.791L177.885,177.791z"/>
<path style="fill:#2D5871;" d="M150.55,137.958h-19.922c-1.474,0-2.669,1.195-2.669,2.669v37.164h25.26v-37.164
	C153.219,139.153,152.024,137.958,150.55,137.958z"/>
<path style="fill:#61AFF6;" d="M297.426,115.527V7.286l116.35,116.35h-108.24C301.057,123.636,297.426,120.005,297.426,115.527z"/>
<path style="fill:#FFB125;" d="M446.681,219.151l30.711-40.034c0.588-0.766,0.443-1.864-0.323-2.452l-14.035-10.766
	c-0.766-0.588-1.864-0.443-2.452,0.323l-30.711,40.034L446.681,219.151z"/>
<path style="fill:#FF901D;" d="M477.069,176.665l-6.313-4.843c-0.059,0.149-0.13,0.293-0.232,0.426l-31.523,41.01l7.68,5.892
	l30.711-40.034C477.98,178.351,477.835,177.253,477.069,176.665z"/>
<path style="fill:#FF4C4C;" d="M296.709,434.144l-55.575,37.738c-1.118,0.759-2.557-0.345-2.114-1.621l22.052-63.455
	l168.477-219.622c1.246-1.625,3.574-1.931,5.198-0.685l29.754,22.825c1.625,1.246,1.931,3.574,0.685,5.198L296.709,434.144z"/>
<path style="fill:#F33939;" d="M464.501,209.323l-14.35-11.008c-0.116,0.257-0.254,0.506-0.432,0.739L281.241,418.676
	l-41.723,53.173c0.443,0.325,1.067,0.405,1.615,0.032l55.575-37.738l168.477-219.622
	C466.432,212.897,466.125,210.57,464.501,209.323z"/>
<path style="fill:#FFB125;" d="M261.084,406.79l-0.012,0.016l-22.035,63.405c-0.449,1.292,1.008,2.41,2.14,1.642l55.532-37.708
	l0.012-0.016L261.084,406.79z"/>
<path style="fill:#FF901D;" d="M279.489,420.909l-39.947,50.911c0.448,0.329,1.08,0.41,1.635,0.033l55.532-37.708l0.012-0.016
	L279.489,420.909z"/>
<path d="M481.509,170.887c-0.002-0.001-0.003-0.002-0.005-0.003l-14.036-10.768c-3.953-3.029-9.636-2.281-12.668,1.671
	l-14.928,19.46l-0.69-0.529c-4.807-3.69-11.723-2.78-15.416,2.031L255.29,402.371c-0.001,0.002-0.002,0.003-0.003,0.005
	c-0.001,0.001-0.002,0.003-0.003,0.004c-0.131,0.171-0.234,0.359-0.348,0.54c-0.092,0.145-0.197,0.281-0.278,0.431
	c-0.183,0.341-0.34,0.696-0.467,1.063l-22.036,63.406c-0.001,0.003-0.002,0.006-0.003,0.009l-0.014,0.041
	c-1.232,3.546-0.057,7.462,2.921,9.746c1.559,1.195,3.421,1.797,5.287,1.797c1.699,0,3.402-0.5,4.881-1.504l0.042-0.028
	c0.001,0,0.001-0.001,0.002-0.001l55.531-37.709c0.312-0.212,0.609-0.451,0.887-0.712c0.117-0.11,0.216-0.237,0.325-0.354
	c0.145-0.155,0.3-0.303,0.431-0.468c0.01-0.013,0.018-0.027,0.028-0.039c0.005-0.007,0.012-0.013,0.018-0.02l151.624-197.653
	l4.518,3.466l-62.105,80.958c-2.449,3.193-1.846,7.767,1.347,10.216c1.323,1.015,2.881,1.506,4.429,1.506
	c2.189,0,4.352-0.982,5.787-2.852l64.003-83.434c3.843-5.01,2.896-12.213-2.116-16.058l-6.993-5.365l7.984-10.408
	c3.687-4.809,2.776-11.723-2.033-15.414l-0.69-0.529l14.926-19.458C486.204,179.604,485.458,173.922,481.509,170.887z
	 M268.761,444.314l-17.029,11.563l8.628-24.826l4.29-12.343l19.636,15.064L268.761,444.314z M295.375,423.912l-24.074-18.468
	l161.851-210.985l24.075,18.468L295.375,423.912z M456.683,194.142l-5.248-4.025l11.557-15.066l5.248,4.025L456.683,194.142z"/>
<path d="M373.637,236.817c0-4.024-3.262-7.287-7.287-7.287H79.1c-4.025,0-7.287,3.262-7.287,7.287c0,4.024,3.262,7.287,7.287,7.287
	h287.25C370.375,244.103,373.637,240.841,373.637,236.817z"/>
<path d="M304.008,312.007c0-4.024-3.262-7.287-7.287-7.287H79.1c-4.025,0-7.287,3.262-7.287,7.287c0,4.024,3.262,7.287,7.287,7.287
	h217.621C300.746,319.293,304.008,316.031,304.008,312.007z"/>
<path d="M79.1,469.672h131.481c4.025,0,7.287-3.262,7.287-7.287s-3.262-7.287-7.287-7.287H79.1c-4.025,0-7.287,3.262-7.287,7.287
	S75.075,469.672,79.1,469.672z"/>
<path d="M366.35,469.672c4.025,0,7.287-3.262,7.287-7.287s-3.262-7.287-7.287-7.287h-64.445c-4.025,0-7.287,3.262-7.287,7.287
	s3.262,7.287,7.287,7.287H366.35z"/>
<path d="M413.776,343.393c-4.025,0-7.287,3.262-7.287,7.287v146.186c0,0.309-0.252,0.561-0.562,0.561H42.099
	c-0.309,0-0.562-0.252-0.562-0.561V15.134c0-0.309,0.252-0.561,0.562-0.561H290.14v100.954c0,8.49,6.907,15.397,15.397,15.397
	H406.49v42.061c0,4.024,3.262,7.287,7.287,7.287s7.287-3.262,7.287-7.287v-49.347c0-0.083-0.009-0.164-0.012-0.246
	s-0.007-0.163-0.012-0.244c-0.021-0.311-0.055-0.62-0.115-0.923c-0.001-0.003-0.001-0.006-0.001-0.009
	c-0.061-0.309-0.15-0.61-0.25-0.907c-0.025-0.076-0.052-0.15-0.08-0.225c-0.106-0.282-0.223-0.558-0.363-0.825
	c-0.007-0.014-0.013-0.029-0.02-0.043c-0.148-0.278-0.321-0.544-0.505-0.802c-0.046-0.065-0.094-0.129-0.142-0.192
	c-0.196-0.256-0.402-0.505-0.633-0.735L302.579,2.134c-0.231-0.23-0.479-0.437-0.735-0.633c-0.064-0.049-0.128-0.097-0.194-0.144
	c-0.258-0.183-0.522-0.356-0.8-0.503c-0.017-0.009-0.034-0.015-0.051-0.024c-0.264-0.138-0.537-0.255-0.816-0.359
	c-0.077-0.029-0.153-0.056-0.231-0.083c-0.295-0.099-0.594-0.187-0.9-0.248c-0.011-0.002-0.022-0.003-0.033-0.005
	c-0.294-0.057-0.594-0.091-0.896-0.111c-0.087-0.006-0.173-0.01-0.26-0.013C297.584,0.009,297.506,0,297.426,0H42.099
	c-8.345,0-15.135,6.789-15.135,15.134v481.732c0,8.345,6.789,15.134,15.135,15.134h363.829c8.345,0,15.135-6.789,15.135-15.134
	V350.679C421.063,346.655,417.801,343.393,413.776,343.393z M304.713,24.878l91.472,91.472h-90.649c-0.454,0-0.824-0.37-0.824-0.824
	V24.878H304.713z"/>
<path d="M201.517,116.489c1.942,0,3.879-0.771,5.313-2.297c2.755-2.933,2.611-7.545-0.323-10.3l-60.93-57.238
	c-2.805-2.635-7.173-2.635-9.977,0l-60.93,57.238c-2.934,2.755-3.078,7.367-0.323,10.3c2.756,2.932,7.366,3.077,10.3,0.322
	l55.941-52.551l55.941,52.551C197.936,115.834,199.729,116.489,201.517,116.489z"/>
<path d="M132.342,78.25l-37.297,35.037c-2.414,2.268-3.798,5.468-3.798,8.779v50.966c0,6.642,5.404,12.046,12.046,12.046h24.666
	h25.26h24.666c6.642,0,12.046-5.404,12.046-12.046v-50.966c0-3.311-1.384-6.511-3.799-8.779L148.837,78.25
	C144.213,73.906,136.966,73.906,132.342,78.25z M145.933,170.505h-10.687v-25.26h10.687V170.505z M175.359,170.505h-14.853v-29.877
	c0-5.49-4.466-9.956-9.955-9.956h-19.922c-5.49,0-9.955,4.466-9.955,9.956v29.877H105.82V123.16l34.769-32.663l34.769,32.663
	L175.359,170.505L175.359,170.505z"/>
<path d="M239.165,387.196c0-4.024-3.262-7.287-7.287-7.287h-81.284c-4.025,0-7.287,3.262-7.287,7.287s3.262,7.287,7.287,7.287
	h81.284C235.903,394.482,239.165,391.22,239.165,387.196z"/>
<path d="M79.995,394.482h25.328c4.025,0,7.287-3.262,7.287-7.287s-3.262-7.287-7.287-7.287H79.995c-4.025,0-7.287,3.262-7.287,7.287
	S75.971,394.482,79.995,394.482z"/>
<g>
</g>
<g>
</g>
<g>
</g>
<g>
</g>
<g>
</g>
<g>
</g>
<g>
</g>
<g>
</g>
<g>
</g>
<g>
</g>
<g>
</g>
<g>
</g>
<g>
</g>
<g>
</g>
<g>
</g>
</svg>
