<?xml version="1.0" encoding="iso-8859-1"?>
<!-- Generator: Adobe Illustrator 19.0.0, SVG Export Plug-In . SVG Version: 6.00 Build 0)  -->
<svg version="1.1" id="Capa_1" xmlns="http://www.w3.org/2000/svg" xmlns:xlink="http://www.w3.org/1999/xlink" x="0px" y="0px"
	 viewBox="0 0 512.001 512.001" style="enable-background:new 0 0 512.001 512.001;" xml:space="preserve">
<path style="fill:#61AFF6;" d="M456.582,21.45H55.418C29.285,21.45,8.1,42.635,8.1,68.769v234.375
	c0,26.133,21.185,47.318,47.318,47.318h249.078L401.2,488.381c2.847,4.06,9.228,2.046,9.228-2.913V350.462h46.153
	c26.133,0,47.318-21.185,47.318-47.318V68.769C503.9,42.635,482.715,21.45,456.582,21.45z"/>
<path style="fill:#55A2F0;" d="M493.095,38.67c-2.893-3.505-6.281-6.587-10.057-9.138c-7.552-5.102-16.656-8.081-26.456-8.081
	h-7.559c3.324,6.472,5.211,13.803,5.211,21.579v234.375c0,26.133-21.185,47.318-47.318,47.318H13.311
	c7.846,15.279,23.75,25.74,42.107,25.74h249.078l96.704,137.92c0.518,0.739,1.155,1.271,1.847,1.626l2.701,0.511l0,0
	c1.198-0.104,2.351-0.621,3.215-1.47c0.038-0.038,0.072-0.08,0.109-0.119c0.158-0.165,0.304-0.343,0.438-0.531
	c0.052-0.074,0.101-0.15,0.149-0.227c0.107-0.17,0.203-0.349,0.289-0.535c0.044-0.094,0.088-0.187,0.126-0.285
	c0.076-0.195,0.135-0.402,0.187-0.613c0.024-0.096,0.054-0.188,0.073-0.288c0.058-0.314,0.095-0.639,0.095-0.982l0,0V350.462h46.153
	c26.133,0,47.318-21.185,47.318-47.318V68.769c0-10.617-3.496-20.417-9.4-28.311C494.046,39.85,493.577,39.254,493.095,38.67z"/>
<g>
	<path style="fill:#E1EFFB;" d="M246.935,79.706l-90.28,84.809v129.122c0,3.406,2.761,6.167,6.167,6.167h168.225
		c3.406,0,6.167-2.761,6.167-6.167V164.515L246.935,79.706z"/>
	<path style="fill:#E1EFFB;" d="M246.935,79.706v220.098h84.113c3.406,0,6.167-2.761,6.167-6.167V164.515L246.935,79.706
		L246.935,79.706z"/>
</g>
<path style="fill:#CCDFED;" d="M246.935,79.706v220.098h84.113c3.406,0,6.167-2.761,6.167-6.167V164.515L246.935,79.706
	L246.935,79.706z"/>
<path style="fill:#FF4C4C;" d="M368.983,191.066c-3.043,0-6.093-1.114-8.487-3.362L246.935,81.025L133.374,187.704
	c-4.991,4.689-12.838,4.443-17.525-0.547c-4.689-4.99-4.444-12.837,0.547-17.525l122.05-114.654c4.771-4.483,12.207-4.483,16.978,0
	l122.05,114.654c4.991,4.688,5.236,12.535,0.547,17.525C375.581,189.754,372.286,191.066,368.983,191.066z"/>
<path style="fill:#2D5871;" d="M270.11,186.185h-46.35c-2.175,0-3.938,1.763-3.938,3.938v109.681h54.225V190.123
	C274.048,187.948,272.285,186.185,270.11,186.185z"/>
<path d="M232.9,49.073L110.85,163.728c-3.991,3.748-6.283,8.828-6.454,14.3c-0.171,5.473,1.8,10.685,5.548,14.674
	c3.748,3.991,8.827,6.283,14.3,6.455c0.219,0.006,0.438,0.009,0.657,0.009c5.232,0,10.188-1.96,14.019-5.558l9.635-9.051v109.08
	c0,7.867,6.4,14.267,14.267,14.267h57h54.225h57c7.867,0,14.267-6.4,14.267-14.267v-109.08l9.635,9.051
	c3.816,3.584,8.8,5.558,14.033,5.558c5.637,0,11.084-2.356,14.942-6.463c3.749-3.99,5.72-9.202,5.549-14.675
	s-2.463-10.552-6.454-14.301L260.97,49.074C253.1,41.68,240.769,41.681,232.9,49.073z M265.948,291.704h-38.025v-97.419h38.025
	V291.704z M329.115,291.704h-46.968V190.123c0-6.638-5.4-12.038-12.038-12.038h-46.35c-6.638,0-12.037,5.4-12.037,12.038v101.581
	h-46.968V169.339l82.18-77.201l82.18,77.201v122.365H329.115z M373.282,178.533c0.036,1.147-0.377,2.24-1.164,3.078
	c-1.107,1.179-2.439,1.355-3.134,1.355c-1.096,0-2.141-0.414-2.941-1.166L252.481,75.121c-3.118-2.928-7.974-2.928-11.092,0
	l-90.28,84.809c-0.002,0.002-0.003,0.003-0.005,0.005l-23.276,21.866c-0.837,0.786-1.923,1.179-3.078,1.163
	c-1.147-0.036-2.212-0.516-2.998-1.354c-0.786-0.836-1.199-1.929-1.163-3.076c0.036-1.147,0.517-2.213,1.354-2.998L243.992,60.88
	c0.825-0.775,1.884-1.162,2.943-1.162c1.059,0,2.118,0.387,2.943,1.163l122.05,114.652
	C372.765,176.321,373.246,177.386,373.282,178.533z"/>
<path d="M8.1,250.075c4.473,0,8.1-3.626,8.1-8.1V68.768c0-21.625,17.593-39.218,39.218-39.218h318.944c4.473,0,8.1-3.626,8.1-8.1
	s-3.626-8.1-8.1-8.1H55.418C24.86,13.351,0,38.211,0,68.768v173.207C0,246.449,3.626,250.075,8.1,250.075z"/>
<path d="M456.582,13.351h-31.895c-4.473,0-8.1,3.626-8.1,8.1s3.626,8.1,8.1,8.1h31.895c21.625,0,39.218,17.593,39.218,39.218
	v234.376c0,21.625-17.593,39.218-39.218,39.218h-46.154c-4.473,0-8.1,3.626-8.1,8.1v125.421l-91.2-130.071
	c-1.516-2.162-3.991-3.45-6.632-3.45H55.418c-21.625,0-39.218-17.593-39.218-39.218v-10.218c0-4.474-3.626-8.1-8.1-8.1
	s-8.1,3.626-8.1,8.1v10.218c0,30.557,24.86,55.418,55.418,55.418h244.865l94.286,134.47c2.521,3.595,6.551,5.618,10.758,5.618
	c1.327,0,2.673-0.201,3.994-0.618c5.508-1.739,9.208-6.788,9.208-12.563V358.562h38.054c30.558,0,55.418-24.861,55.418-55.418
	V68.768C512,38.211,487.14,13.351,456.582,13.351z"/>
<g>
</g>
<g>
</g>
<g>
</g>
<g>
</g>
<g>
</g>
<g>
</g>
<g>
</g>
<g>
</g>
<g>
</g>
<g>
</g>
<g>
</g>
<g>
</g>
<g>
</g>
<g>
</g>
<g>
</g>
</svg>
