<svg height="512pt" viewBox="0 -26 512 512" width="512pt" xmlns="http://www.w3.org/2000/svg"><path d="m10 130h426v140h-426zm0 0" fill="#ff641a"/><path d="m10 50h426v80h-426zm0 0" fill="#596c76"/><path d="m502 190v260h-420v-260zm0 0" fill="#76e2f8"/><path d="m10 10h426v40h-426zm0 0" fill="#ff641a"/><path d="m342 230h120v80h-120zm0 0" fill="#ececf1"/><path d="m222 230c-11.949219 0-22.671875 5.238281-30 13.539062l-.011719.011719v52.898438l.011719.011719c7.328125 8.300781 18.050781 13.539062 30 13.539062 22.089844 0 40-17.910156 40-40s-17.910156-40-40-40zm0 0" fill="#ffb64c"/><path d="m202 270c0 21.992188-17.839844 40-40 40-22.089844 0-40-17.910156-40-40s17.910156-40 40-40c22.164062 0 40 18.015625 40 40zm0 0" fill="#ff641a"/><path d="m502 180h-56v-170c0-5.523438-4.476562-10-10-10h-247c-5.523438 0-10 4.476562-10 10s4.476562 10 10 10h237v20h-406v-20h89c5.523438 0 10-4.476562 10-10s-4.476562-10-10-10h-99c-5.523438 0-10 4.476562-10 10v260c0 5.523438 4.476562 10 10 10h62v170c0 5.523438 4.476562 10 10 10h420c5.523438 0 10-4.476562 10-10v-260c0-5.523438-4.476562-10-10-10zm-76-120v60h-406v-60zm-406 200v-120h406v40h-344c-5.523438 0-10 4.476562-10 10v70zm472 180h-400v-240h400zm0 0"/><path d="m162 320c10.90625 0 21.417969-3.578125 29.996094-10.019531 8.589844 6.441406 19.101562 10.019531 30.003906 10.019531 27.570312 0 50-22.429688 50-50s-22.429688-50-50-50c-10.902344 0-21.414062 3.578125-30.003906 10.019531-8.582032-6.441406-19.089844-10.019531-29.996094-10.019531-27.570312 0-50 22.429688-50 50s22.429688 50 50 50zm90-50c0 16.542969-13.457031 30-30 30-5.988281 0-11.78125-1.800781-16.675781-5.070312 4.339843-7.53125 6.675781-16.113282 6.675781-24.929688s-2.335938-17.398438-6.675781-24.929688c4.894531-3.269531 10.6875-5.070312 16.675781-5.070312 16.542969 0 30 13.457031 30 30zm-90-30c16.605469 0 30 13.515625 30 30 0 16.507812-13.414062 30-30 30-16.542969 0-30-13.457031-30-30s13.457031-30 30-30zm0 0"/><path d="m342 220c-5.523438 0-10 4.476562-10 10v80c0 5.523438 4.476562 10 10 10h120c5.523438 0 10-4.476562 10-10v-80c0-5.523438-4.476562-10-10-10zm70 20v20h-60v-20zm-60 40h60v20h-60zm100 20h-20v-60h20zm0 0"/><path d="m462 360h-340c-5.523438 0-10 4.476562-10 10s4.476562 10 10 10h340c5.523438 0 10-4.476562 10-10s-4.476562-10-10-10zm0 0"/><path d="m162 400h-40c-5.523438 0-10 4.476562-10 10s4.476562 10 10 10h40c5.523438 0 10-4.476562 10-10s-4.476562-10-10-10zm0 0"/><path d="m262 400h-40c-5.523438 0-10 4.476562-10 10s4.476562 10 10 10h40c5.523438 0 10-4.476562 10-10s-4.476562-10-10-10zm0 0"/><path d="m362 400h-40c-5.523438 0-10 4.476562-10 10s4.476562 10 10 10h40c5.523438 0 10-4.476562 10-10s-4.476562-10-10-10zm0 0"/><path d="m462 400h-40c-5.523438 0-10 4.476562-10 10s4.476562 10 10 10h40c5.523438 0 10-4.476562 10-10s-4.476562-10-10-10zm0 0"/><path d="m139 10c0 5.519531 4.480469 10 10 10s10-4.480469 10-10-4.480469-10-10-10-10 4.480469-10 10zm0 0"/></svg>