<?xml version="1.0" encoding="iso-8859-1"?>
<!-- Generator: Adobe Illustrator 19.0.0, SVG Export Plug-In . SVG Version: 6.00 Build 0)  -->
<svg version="1.1" id="Capa_1" xmlns="http://www.w3.org/2000/svg" xmlns:xlink="http://www.w3.org/1999/xlink" x="0px" y="0px"
	 viewBox="0 0 512 512" style="enable-background:new 0 0 512 512;" xml:space="preserve">
<path style="fill:#FFB125;" d="M56.437,423.086l6.959-6.959c0.917-0.917,1.528-2.096,1.748-3.374l4.616-26.801
	c0.451-2.619,2.503-4.671,5.122-5.122l24.397-4.202c2.619-0.451,4.671-2.503,5.122-5.122l4.202-24.397
	c0.451-2.619,2.503-4.671,5.122-5.122l26.802-4.616c1.278-0.22,2.457-0.831,3.374-1.748l109.427-109.427
	c2.452-2.452,2.452-6.428,0-8.88l-37.624-37.625c-2.452-2.452-6.428-2.452-8.88,0L9.933,376.582
	c-1.147,1.147-1.806,2.694-1.838,4.316l-0.76,38.385c-0.071,3.565,2.837,6.473,6.402,6.402l38.385-0.76
	C53.743,424.891,55.29,424.233,56.437,423.086z"/>
<path style="fill:#FEE570;" d="M221.017,185.006L7.751,398.272l-0.416,21.01c-0.001,0.049,0.004,0.096,0.005,0.144l224.049-224.049
	L221.017,185.006z"/>
<path style="fill:#FF901D;" d="M253.327,217.316l-21.939-21.939L7.339,419.426c0.01,3.498,2.882,6.327,6.397,6.258l38.385-0.76
	c1.622-0.032,3.168-0.691,4.316-1.838l6.959-6.959c0.917-0.917,1.528-2.096,1.748-3.374l4.616-26.801
	c0.451-2.619,2.503-4.671,5.122-5.122l24.397-4.202c2.619-0.451,4.671-2.503,5.122-5.122l4.202-24.397
	c0.451-2.619,2.503-4.671,5.122-5.122l26.802-4.616c1.278-0.22,2.457-0.831,3.374-1.748l109.427-109.427
	C255.779,223.744,255.779,219.768,253.327,217.316z"/>
<path style="fill:#2D5872;" d="M360.405,72.614c-42.936-42.936-112.548-42.936-155.484,0s-42.936,112.548,0,155.484
	s112.548,42.936,155.484,0C403.34,185.162,403.34,115.549,360.405,72.614z M293.77,139.248c-13.388-13.388-13.388-35.093,0-48.481
	s35.093-13.388,48.481,0s13.388,35.093,0,48.481C328.864,152.636,307.158,152.636,293.77,139.248z"/>
<path style="fill:#1D4859;" d="M360.405,72.614c-5.52-5.52-11.485-10.326-17.774-14.426c27.794,42.625,22.989,100.295-14.426,137.71
	s-95.086,42.22-137.71,14.426c4.101,6.289,8.906,12.253,14.426,17.774c42.936,42.936,112.548,42.936,155.484,0
	S403.34,115.549,360.405,72.614z"/>
<path style="fill:#FF4C4C;" d="M503.19,366.133c2.545-4.23,1.793-9.663-1.807-13.042l-99.477-93.378
	c-4.13-3.878-10.564-3.875-14.691,0.005l-40.875,38.427l-0.006-14.793c-0.002-4.977-4.038-9.009-9.014-9.007l-11.856,0.004
	c-4.976,0.002-9.009,4.038-9.007,9.014l0.016,42.861l-28.665,26.948c-3.596,3.381-4.346,8.814-1.798,13.042l3.634,6.032
	c3.445,5.719,11.289,6.8,16.153,2.227l10.682-10.042l0.041,101.824c0.001,2.947,2.391,5.336,5.339,5.335l145.564-0.055
	c2.947-0.001,5.336-2.391,5.335-5.339l-0.041-101.824l10.691,10.036c4.867,4.569,12.709,3.482,16.15-2.238L503.19,366.133z
	 M394.601,318.552c-8.786,0-15.908-7.122-15.908-15.909s7.122-15.909,15.908-15.909c8.786,0,15.909,7.122,15.909,15.909
	S403.388,318.552,394.601,318.552z"/>
<path style="fill:#2D5871;" d="M414.139,383.886H380.5c-4.772,0-8.64,3.868-8.64,8.64v79.045h50.919v-79.045
	C422.779,387.755,418.911,383.886,414.139,383.886z"/>
<path style="fill:#F33939;" d="M501.384,353.091l-99.477-93.378c-4.13-3.878-10.564-3.875-14.691,0.005l-7.339,6.9l48.382,45.416
	v38.191l-0.033-0.031l0.041,121.356l39.156-0.015c2.947-0.001,5.336-2.391,5.335-5.339l-0.041-101.824l10.691,10.036
	c4.867,4.569,12.709,3.482,16.15-2.238l3.633-6.037C505.736,361.903,504.983,356.47,501.384,353.091z"/>
<path d="M506.403,347.744l-15.678-14.717c-2.953-2.772-7.594-2.626-10.366,0.328c-2.772,2.953-2.625,7.594,0.328,10.366
	l15.677,14.717c1.073,1.007,1.302,2.653,0.543,3.914l-3.633,6.038c-0.674,1.12-1.707,1.417-2.263,1.493
	c-0.554,0.078-1.63,0.073-2.584-0.822l-10.691-10.036c-2.132-2.002-5.252-2.546-7.934-1.383c-2.684,1.162-4.421,3.808-4.419,6.733
	l0.041,99.828l-35.311,0.013v-71.689c0-8.808-7.166-15.974-15.974-15.974H380.5c-8.808,0-15.974,7.166-15.974,15.974v71.714
	l-40.674,0.015l-0.041-99.827c-0.001-2.924-1.74-5.569-4.425-6.729c-2.685-1.161-5.802-0.615-7.932,1.389l-10.682,10.042
	c-0.952,0.896-2.025,0.903-2.584,0.824c-0.556-0.076-1.589-0.372-2.264-1.492l-3.634-6.033c-0.759-1.26-0.532-2.906,0.54-3.914
	l28.665-26.948c1.475-1.387,2.311-3.322,2.31-5.346l-0.016-42.861c0-0.574,0.267-0.962,0.491-1.186s0.611-0.492,1.186-0.492
	l11.857-0.004c0.924,0,1.677,0.751,1.677,1.676l0.006,14.793c0.001,2.924,1.74,5.569,4.424,6.729
	c2.683,1.158,5.801,0.614,7.933-1.389l4.374-4.112c5.493,4.3,10.994,7.368,16.37,9.124c2.603,9.99,11.7,17.386,22.493,17.386
	c12.816,0,23.242-10.427,23.242-23.242c0-12.816-10.427-23.242-23.242-23.242c-9.464,0-17.62,5.689-21.241,13.825
	c-2.197-1.023-4.467-2.371-6.783-4.04l25.662-24.125c1.302-1.225,3.344-1.227,4.649-0.001l50.075,47.005
	c2.953,2.772,7.594,2.626,10.366-0.328c2.772-2.953,2.626-7.594-0.328-10.366l-40.234-37.768
	c1.124-18.619-2.37-40.469-10.001-62.113c-2.919-8.279-6.34-16.185-10.141-23.584c9.216-38.395-1.127-80.57-31.035-110.478
	c-22.151-22.151-51.601-34.35-82.927-34.35s-60.777,12.199-82.928,34.35s-34.35,51.601-34.35,82.927
	c0,17.389,3.765,34.198,10.898,49.504l-93.739,93.741c-2.864,2.864-2.864,7.507,0,10.371s7.507,2.864,10.371,0l90.72-90.719
	c2.261,3.545,4.727,6.978,7.382,10.289c0.067,0.084,0.135,0.169,0.203,0.253c0.561,0.695,1.13,1.385,1.708,2.069
	c0.13,0.154,0.259,0.309,0.39,0.463c0.524,0.615,1.057,1.223,1.595,1.829c0.172,0.194,0.342,0.39,0.516,0.583
	c0.527,0.585,1.063,1.163,1.602,1.738c0.179,0.191,0.355,0.385,0.535,0.576c0.713,0.751,1.436,1.496,2.171,2.231
	c0.734,0.734,1.478,1.456,2.229,2.169c0.196,0.186,0.396,0.367,0.594,0.552c0.569,0.533,1.141,1.063,1.718,1.584
	c0.199,0.179,0.401,0.355,0.602,0.532c0.597,0.531,1.197,1.056,1.803,1.573c0.164,0.14,0.33,0.278,0.495,0.417
	c0.671,0.567,1.348,1.126,2.03,1.676c0.096,0.078,0.193,0.155,0.29,0.233c3.306,2.649,6.732,5.11,10.27,7.367l-80.815,80.815
	l-26.471,4.56c-5.666,0.976-10.129,5.439-11.105,11.105l-4.076,23.66l-23.663,4.076c-5.667,0.976-10.129,5.439-11.104,11.105
	l-4.56,26.471l-6.421,6.422l-36.863,0.73l0.73-36.863l45.013-45.012c2.864-2.864,2.864-7.507,0-10.371s-7.507-2.864-10.371,0
	L4.746,371.397c-2.499,2.5-3.914,5.823-3.983,9.355l-0.76,38.384c-0.073,3.683,1.379,7.29,3.984,9.895
	c2.543,2.542,6.039,3.987,9.63,3.987c0.088,0,0.177,0,0.265-0.002l38.384-0.76c3.533-0.07,6.856-1.484,9.357-3.984l6.957-6.957
	c2-1.999,3.311-4.529,3.791-7.316l4.49-26.068l23.662-4.076c5.666-0.976,10.129-5.439,11.105-11.105l4.076-23.663l26.068-4.49
	c2.786-0.48,5.316-1.79,7.315-3.79l84.074-84.074c15.306,7.134,32.114,10.898,49.503,10.898c14.596,0,28.784-2.651,42.018-7.721
	c1.284,2.427,2.608,4.8,3.973,7.102l-3.192,0.001c-4.366,0.002-8.47,1.703-11.555,4.791c-3.086,3.088-4.785,7.193-4.783,11.559
	l0.015,39.688l-26.353,24.775c-6.072,5.708-7.358,15.032-3.058,22.17l3.634,6.033c2.792,4.633,7.466,7.714,12.824,8.453
	c4.638,0.641,9.253-0.547,12.965-3.278l0.035,85.052c0.001,3.385,1.32,6.566,3.714,8.958c2.393,2.392,5.573,3.708,8.957,3.708
	c0.001,0,0.003,0,0.004,0l49.998-0.019h0.001h50.919c0.129,0,0.254-0.013,0.382-0.019l44.266-0.017
	c6.986-0.003,12.668-5.689,12.665-12.675l-0.035-85.051c3.716,2.728,8.332,3.913,12.968,3.269c5.358-0.742,10.029-3.826,12.817-8.46
	l3.633-6.038C513.772,362.772,512.48,353.449,506.403,347.744z M392.142,308.668c4.127-1.455,7.797-3.828,10.97-7.037
	c0.039,0.333,0.065,0.669,0.065,1.013c0,4.728-3.847,8.575-8.575,8.575c-1.948,0-3.74-0.66-5.181-1.759
	C390.336,309.238,391.246,308.984,392.142,308.668z M392.933,206.367c5.751,16.311,8.63,31.625,9.244,44.808
	c-6.523-3.025-14.487-1.969-19.985,3.2l-26.512,24.924c-6.408-7.004-12.385-15.677-17.645-25.5
	c10.013-5.377,19.292-12.253,27.555-20.516c10.457-10.457,18.514-22.415,24.188-35.185
	C390.884,200.803,391.942,203.557,392.933,206.367z M327.364,229.485c-10.619-30.12-11.461-56.849-6.285-73.006
	c9.612-0.704,19.024-4.711,26.358-12.045c16.225-16.225,16.225-42.627,0-58.852c-16.226-16.226-42.628-16.226-58.852,0
	c-16.225,16.226-16.225,42.627,0,58.852c5.084,5.084,11.166,8.573,17.621,10.471c-1.061,3.951-1.842,8.255-2.322,12.889
	c-2.026,19.534,1.4,43.175,9.648,66.568c1.476,4.185,3.081,8.275,4.794,12.257c-11.264,4.166-23.295,6.346-35.663,6.346
	c-16.751,0-32.886-3.994-47.328-11.519c-0.076-0.043-0.146-0.094-0.223-0.134c-5.711-2.988-11.121-6.512-16.176-10.527
	c-0.069-0.055-0.138-0.111-0.207-0.166c-1.896-1.514-3.74-3.101-5.533-4.752c-0.185-0.171-0.37-0.343-0.554-0.515
	c-0.856-0.8-1.704-1.61-2.535-2.441c-0.832-0.832-1.644-1.681-2.445-2.539c-0.17-0.182-0.34-0.364-0.508-0.547
	c-1.655-1.796-3.244-3.644-4.761-5.544c-0.052-0.065-0.104-0.129-0.155-0.194c-4.017-5.056-7.542-10.468-10.531-16.181
	c-0.041-0.078-0.092-0.149-0.136-0.226c-7.524-14.441-11.517-30.575-11.517-47.326c0-27.408,10.673-53.176,30.054-72.556
	s45.148-30.054,72.556-30.054s53.176,10.673,72.556,30.054c40.007,40.008,40.007,105.104,0,145.112
	c-7.072,7.072-14.998,12.979-23.541,17.637C330.143,236.958,328.698,233.267,327.364,229.485z M311.818,141.222
	c-4.717-1.106-9.192-3.489-12.862-7.159c-10.506-10.507-10.506-27.603,0-38.11s27.603-10.506,38.11,0
	c8.108,8.108,9.952,20.138,5.547,30.038c-5.014-0.804-9.871-0.423-14.456,1.194C321.442,129.552,315.929,134.342,311.818,141.222z
	 M415.445,464.221l-36.251,0.013v-71.708c0-0.72,0.586-1.306,1.306-1.306h33.639c0.72,0,1.306,0.586,1.306,1.306V464.221z"/>
<g>
</g>
<g>
</g>
<g>
</g>
<g>
</g>
<g>
</g>
<g>
</g>
<g>
</g>
<g>
</g>
<g>
</g>
<g>
</g>
<g>
</g>
<g>
</g>
<g>
</g>
<g>
</g>
<g>
</g>
</svg>
